<?xml version="1.0" encoding="UTF-8"?>
<svg width="1200pt" height="1200pt" version="1.1" viewBox="0 0 1200 1200" xmlns="http://www.w3.org/2000/svg">
 <path d="m490.39 153.73 85.336 76.359c6.9219 6.1953 15.598 9.293 24.273 9.293 8.6758 0 17.355-3.1016 24.27-9.293l85.34-76.359c0.35156-0.30469 0.67969-0.62891 0.99609-0.96094 27.914-29.129 28.781-73.969 2.0273-104.3-11.039-12.516-25.816-20.805-42.738-23.965-22.16-4.1523-45.672 2.5234-64.398 18.34l-5.4961 4.6289-5.4727-4.6172c-18.727-15.797-42.191-22.492-64.371-18.355-16.934 3.1445-31.734 11.43-42.797 23.965-26.754 30.332-25.883 75.176 2.0352 104.3 0.31641 0.33594 0.64844 0.65625 0.99609 0.96094zm23.965-81.445c5.6836-6.4414 13.43-10.723 22.395-12.391 11.352-2.1211 24.281 1.8047 34.566 10.484l16.852 14.215c6.4922 5.4844 17.172 5.4844 23.668 0l16.875-14.227c10.277-8.6914 23.215-12.586 34.582-10.465 8.9414 1.6719 16.676 5.9531 22.348 12.387 14.133 16.016 13.84 39.586-0.57422 55.102l-85.328 75.879-84.777-75.859c-14.441-15.52-14.734-39.105-0.60547-55.125zm483.86 569.94-75.348-14.957c3.5781-14.207 5.5391-28.828 5.5391-43.781 0-7.5078-0.63672-14.973-1.5781-22.414l71.387-14.172c9.75-1.9336 16.09-11.41 14.156-21.16-1.957-9.7617-11.484-16.09-21.164-14.148l-72.383 14.371c-1.6523-4.9492-3.3867-9.8828-5.4648-14.758-2.7188-21.453-8.7422-42.738-17.93-63.316-2.543-5.6914-3.75-12.348-3.5977-19.77l2.8008-139.46c0.25781-12.855-5.707-25.16-15.961-32.918-10.242-7.7656-23.695-10.16-36.023-6.4258l-138.16 41.988c-67.57-19.805-141.36-19.805-208.96 0l-138.17-41.988c-12.289-3.7266-25.766-1.3359-36.016 6.4219-10.254 7.7656-16.219 20.07-15.953 32.922l2.8008 139.44c0.14453 7.4414-1.0664 14.09-3.6055 19.77-9.1992 20.625-15.223 41.922-17.918 63.34-2.0781 4.875-3.8164 9.8086-5.4648 14.754l-72.387-14.371c-9.7656-1.9414-19.227 4.3984-21.16 14.148-1.9414 9.75 4.3984 19.227 14.148 21.16l71.387 14.172c-0.94141 7.4414-1.5781 14.906-1.5781 22.414 0 14.957 1.9648 29.574 5.543 43.781l-75.352 14.957c-9.75 1.9453-16.09 11.414-14.148 21.164 1.6992 8.5664 9.2227 14.496 17.637 14.496 1.1602 0 2.3359-0.10547 3.5195-0.33984l80.613-16.004c19.754 42.125 54.961 79.02 100.72 106.97-42.098 40.098-75.402 94.379-94.262 158.54-15.477 52.641-18.879 109.44-10.113 168.82l9.6562 65.449c1.3203 8.9414 9.0078 15.375 17.785 15.375 0.87109 0 1.7578-0.058594 2.6484-0.1875 8.9531-1.3203 15.312-9.0312 15.305-17.816 0-0.86719 0.007812-1.7383-0.12109-2.6211l-9.6562-65.449c-7.9961-54.188-4.957-105.81 9.0352-153.42 18.344-62.398 51.492-114.45 93.211-150.78 17.133 8.0312 35.332 14.926 54.426 20.547-14.973 19.758-37.508 32.668-61.863 34.246-3.1172 0.21094-6.2578 0.30469-9.4102 0.30469-0.63281 0-1.2109 0.011719-1.9219-0.011719-9.8438 0-17.883 7.9219-17.992 17.801-0.10938 9.9375 7.8594 18.082 17.801 18.199 4.6172 0.058594 9.2734-0.070312 13.863-0.36328 45.203-2.9414 86.062-32.684 104.09-75.785l8.3164-19.875c6.9062-16.508 25.383-25.176 42.477-20.289-8.6094 15.969-11.121 35.211-5.5625 54.133l10.434 35.438c0.87109 3.2031 1.9375 6.1055 2.8867 9.1914-15.672 44.477-39.934 74.688-63.742 101.84-28.645 32.672-90.738 71.004-132.89 82.02-9.6172 2.5078-15.375 12.352-12.863 21.961 2.1133 8.0977 9.4102 13.453 17.402 13.453 1.5078 0 3.0352-0.1875 4.5664-0.58594 49.512-12.938 117.19-54.715 150.85-93.117 18.848-21.496 39.059-46.398 55.527-78.672 16.492 32.32 36.684 57.195 55.508 78.66 33.668 38.414 101.34 80.191 150.86 93.129 1.5234 0.39844 3.0469 0.58594 4.5586 0.58594 7.9922 0 15.293-5.3555 17.402-13.453 2.5195-9.6094-3.2461-19.453-12.867-21.961-42.141-11.016-104.23-49.348-132.88-82.031-27-30.785-54.609-65.449-69.684-120.83l-10.535-35.789c-5.4531-18.539 4.6641-37.75 23.039-43.715 17.395-5.6719 36.605 3.1289 43.66 20.027l8.3203 19.875c18.035 43.102 58.887 72.844 104.07 75.785 4.6055 0.29297 9.3281 0.42188 13.875 0.36328 9.9375-0.11719 17.906-8.2617 17.801-18.199-0.11719-9.8789-8.1445-17.801-18-17.801h-0.19922c-3.75 0.070313-7.4531-0.046875-11.133-0.29297-24.352-1.5781-46.887-14.484-61.855-34.242 19.094-5.6211 37.289-12.516 54.422-20.547 41.711 36.328 74.852 88.359 93.195 150.74 14.004 47.613 17.051 99.234 9.0469 153.43l-9.668 65.473c-0.12891 0.88672-0.11719 1.7539-0.11719 2.6211-0.003907 8.7852 6.3477 16.492 15.305 17.816 9.7969 1.3945 18.984-5.332 20.438-15.188l9.668-65.473c8.7539-59.391 5.3438-116.19-10.125-168.83-18.863-64.141-52.164-118.41-94.258-158.5 45.766-27.949 80.973-64.844 100.73-106.97l80.613 16.004c1.1836 0.23438 2.3555 0.33984 3.5273 0.33984 8.4141 0 15.926-5.9297 17.637-14.496 1.9297-9.75-4.4102-19.219-14.16-21.164zm-377.81 80.121c-1.3008 2.6719-7.0547 7.0898-20.547 7.043-6.0547 0.074219-10.352-0.78516-13.371-1.8867-0.023438-0.007812-0.042969-0.015625-0.066407-0.023437-5-1.8438-6.4531-4.3555-6.5039-4.3555l-8.9766-37.367c11.258-3.7305 20.824-9.6836 28.473-18.004 0.22656-0.24609 0.37109-0.51953 0.58984-0.76562 0.22266 0.25 0.36328 0.51953 0.58984 0.76562 7.6562 8.3281 17.234 14.285 28.508 18.016zm267.18-102.08-52.395-10.402c-9.6445-1.918-19.219 4.3945-21.164 14.148-1.9336 9.75 4.4062 19.219 14.156 21.164l46.152 9.1641c-29.09 55.055-91.082 98.996-169.15 120.15l-2.8945-6.9141c-9.3711-22.414-29.32-37.668-51.871-42.285l8.4102-34.988c0.19922 0 0.38281 0.023437 0.58594 0.023437 0.59766 0 1.207 0 1.8164-0.011719 9.9375-0.14062 17.883-8.3203 17.742-18.258-0.14062-9.8555-8.168-17.742-18-17.742h-0.25781c-15.07 0.51563-26.566-3.3984-33.457-10.77-4.5117-4.8281-6.793-10.801-8.0039-16.141l29.297-39.32c3.6133-4.8867 4.1797-11.391 1.4766-16.824-2.7344-5.4531-8.2969-8.875-14.391-8.875h-71.262c-6.0977 0-11.656 3.4258-14.391 8.875-2.7031 5.4375-2.1367 11.941 1.4766 16.824l29.297 39.32c-1.2109 5.3359-3.4922 11.309-8.0039 16.137-6.8867 7.3711-18.516 11.109-33.457 10.77-9.7656 0.17578-18.117 7.793-18.258 17.742-0.14062 9.9375 7.8047 18.117 17.742 18.258 0.60938 0.011719 1.2109 0.011719 1.8164 0.011719 0.20312 0 0.38672-0.023437 0.58984-0.023437l8.4453 35.152c-22.547 4.6172-42.539 19.711-51.918 42.121l-2.8906 6.9102c-78.07-21.16-140.06-65.098-169.15-120.15l46.152-9.1641c9.75-1.9453 16.09-11.414 14.152-21.164-1.9336-9.7422-11.355-16.055-21.16-14.148l-52.395 10.402c-3.1094-11.941-4.8164-24.219-4.8164-36.781 0-5.1484 0.28906-10.285 0.84766-15.41l56.363 11.191c1.1836 0.23438 2.3594 0.35156 3.5195 0.35156 8.4141 0 15.938-5.9336 17.637-14.504 1.9414-9.75-4.4023-19.227-14.152-21.16l-54.922-10.902c1.1992-3.2773 2.3398-6.5625 3.7734-9.8008 0.74219-1.6758 1.2266-3.457 1.4297-5.2734 2.0977-18.664 7.2656-37.32 15.348-55.434 4.7109-10.547 6.9727-22.379 6.7148-35.164l-2.8047-139.45c-0.035156-1.7969 0.90234-2.8945 1.6953-3.4922 0.57812-0.44141 1.4336-0.88672 2.5312-0.88672 0.39844 0 0.83203 0.058593 1.2969 0.19922l143.38 43.578c3.4414 1.0547 7.125 1.043 10.551-0.023437 63.973-19.805 134.41-19.809 198.37-0.007813 3.4453 1.0586 7.1133 1.0781 10.559 0.023438l143.37-43.566c1.7461-0.53516 3.0234 0.078126 3.832 0.67969 0.78516 0.59766 1.7227 1.6953 1.6875 3.4922l-2.8008 139.46c-0.24609 12.762 2.0039 24.586 6.7148 35.164 8.0859 18.082 13.254 36.734 15.375 55.43 0.19922 1.8164 0.67969 3.5898 1.4297 5.2617 1.4336 3.2383 2.5703 6.5234 3.7695 9.8008l-54.934 10.906c-9.75 1.9336-16.09 11.41-14.156 21.16 1.7109 8.5664 9.2227 14.504 17.637 14.504 1.1719 0 2.3438-0.11719 3.5273-0.35156l56.367-11.191c0.55859 5.1211 0.84375 10.262 0.84375 15.41 0 12.559-1.7109 24.84-4.8164 36.781zm-369.51-108.38c0 16.945-13.738 30.684-30.691 30.684-16.945 0-30.691-13.738-30.691-30.684 0-16.953 13.746-30.691 30.691-30.691 16.953 0 30.691 13.738 30.691 30.691zm225.23 0c0 16.945-13.738 30.684-30.691 30.684-16.945 0-30.684-13.738-30.684-30.684 0-16.953 13.738-30.691 30.684-30.691 16.953 0 30.691 13.738 30.691 30.691z"/>
</svg>
