<?xml version="1.0" encoding="UTF-8"?>
<svg width="1200pt" height="1200pt" version="1.1" viewBox="0 0 1200 1200" xmlns="http://www.w3.org/2000/svg">
 <path d="m909.26 353.66 85.336 76.359c6.9141 6.1953 15.598 9.293 24.27 9.293 8.6719 0 17.355-3.1016 24.27-9.293l85.336-76.359c0.33984-0.30469 0.67969-0.62891 0.99609-0.95312 27.914-29.129 28.793-73.969 2.0391-104.3-11.051-12.52-25.828-20.805-42.75-23.965-22.195-4.1133-45.668 2.543-64.395 18.332l-5.4961 4.6367-5.4727-4.6172c-18.727-15.801-42.223-22.5-64.371-18.359-16.934 3.1445-31.734 11.43-42.797 23.965-26.754 30.332-25.875 75.176 2.0391 104.31 0.31641 0.32812 0.65625 0.64844 0.99609 0.95312zm23.953-81.445c5.6953-6.4414 13.43-10.73 22.395-12.391 11.391-2.1094 24.281 1.7969 34.57 10.488l16.863 14.215c6.4922 5.4727 17.156 5.4727 23.648 0l16.875-14.234c10.301-8.6602 23.215-12.562 34.582-10.465 8.9531 1.6719 16.688 5.9531 22.359 12.387 14.133 16.02 13.84 39.59-0.58594 55.102l-85.324 75.879-84.773-75.859c-14.438-15.516-14.73-39.102-0.60938-55.121zm134.19 359.55c0 9.9375-8.0625 18-18 18h-10.91c-9.9375 0-18-8.0625-18-18s8.0625-18 18-18h10.91c9.9375 0 18 8.0625 18 18zm-50.168-43.301c0 9.9453-8.0625 18-18 18h-10.91c-9.9375 0-18-8.0547-18-18 0-9.9453 8.0625-18 18-18h10.91c9.9375 0 18 8.0586 18 18zm0 86.59c0 9.9375-8.0625 18-18 18h-10.91c-9.9375 0-18-8.0625-18-18s8.0625-18 18-18h10.91c9.9375 0 18 8.0625 18 18zm120.72 32.559c-0.64844-1.7617-1.1484-3.5625-2.0703-5.2422l-14.602-26.613c-0.26953-0.48047-0.26953-1.0664 0-1.5586l14.578-26.543c6.2344-11.332 6.2344-24.867 0.011718-36.223l-14.59-26.59c-0.26953-0.48437-0.26953-1.0586 0-1.5469v-0.011719l11.801-21.48c4.7695-8.707 4.6055-19.008-0.45703-27.555-5.0625-8.543-14.004-13.641-23.93-13.641h-164.12c-10.148 0-19.5 5.5312-24.387 14.438l-16.957 30.91c-6.2344 11.344-6.2344 24.891-0.011719 36.215l14.59 26.598c0.26953 0.48047 0.26953 1.0664 0 1.5586l-14.578 26.543c-6.2344 11.344-6.2344 24.891-0.011719 36.223l7.8242 14.262h-8.7148c-16.547 0-30 13.453-30 30v309.19c0 9.9375 8.0625 18 18 18s18-8.0625 18-18v-220.86h221.05v220.85c0 9.9375 8.0625 18 18 18s18-8.0625 18-18v-309.19c0-15.664-12.102-28.41-27.426-29.738zm-201.36 82.074h-28.266v-46.336h28.266zm64.266 0h-28.266v-46.336h28.266zm64.266 0h-28.266v-46.336h28.266zm-113.78-82.336c-0.62891-1.6719-1.0938-3.3828-1.9688-4.9805l-14.602-26.613c-0.26953-0.48047-0.26953-1.0664 0-1.5586l14.578-26.543c6.2344-11.344 6.2344-24.891 0.011719-36.215l-14.59-26.598c-0.26953-0.48437-0.26953-1.0586 0.011719-1.5586l14.637-26.676h145.44l-5.1328 9.3594c-6.2344 11.336-6.2344 24.879 0 36.211l14.578 26.566c0.26953 0.49219 0.26953 1.0781 0 1.582l-14.578 26.543c-6.2344 11.344-6.2344 24.891-0.011719 36.223l7.8242 14.262zm178.03 82.336h-28.254v-46.336h28.254zm-269.7-376.09c-1.9453-9.7617-11.508-16.074-21.164-14.148l-72.383 14.371c-1.6484-4.9453-3.3867-9.8828-5.4648-14.758-2.707-21.438-8.7422-42.73-17.93-63.32-2.543-5.6914-3.75-12.348-3.5977-19.77l2.8008-139.45c0.25781-12.855-5.707-25.16-15.961-32.922-10.254-7.7578-23.73-10.152-36.023-6.4219l-138.16 41.988c-67.621-19.816-141.35-19.805-208.96 0l-138.18-41.988c-12.289-3.7344-25.758-1.3359-36.016 6.4219-10.246 7.7656-16.219 20.07-15.953 32.922l2.8008 139.44c0.14453 7.4336-1.0664 14.086-3.6055 19.77-9.1953 20.617-15.215 41.914-17.914 63.34-2.0781 4.875-3.8164 9.8086-5.4688 14.754l-72.391-14.379c-9.7578-1.9102-19.227 4.4062-21.16 14.148-1.9414 9.75 4.3984 19.227 14.148 21.16l71.391 14.176c-0.94141 7.4375-1.5781 14.902-1.5781 22.406 0 14.957 1.9648 29.574 5.543 43.785l-75.352 14.961c-9.75 1.9336-16.09 11.41-14.148 21.16 1.6992 8.5664 9.2227 14.504 17.637 14.504 1.1602 0 2.3359-0.11719 3.5195-0.35156l80.617-16.008c19.754 42.133 54.961 79.027 100.73 106.98-42.102 40.102-75.406 94.383-94.27 158.55-15.477 52.641-18.879 109.43-10.113 168.81l9.6562 65.449c1.4492 9.832 10.57 16.629 20.43 15.188 8.9531-1.3203 15.312-9.0312 15.305-17.812 0-0.87109 0.007813-1.7383-0.12109-2.625l-9.6562-65.449c-7.9961-54.188-4.957-105.81 9.0352-153.41 18.348-62.402 51.496-114.45 93.215-150.79 17.133 8.0312 35.332 14.926 54.426 20.547-14.969 19.758-37.508 32.664-61.859 34.242-3.2461 0.21094-6.5117 0.31641-9.7852 0.31641-0.51953 0-1.0469-0.023437-1.5586-0.011718-9.8672 0-17.914 7.957-17.992 17.848-0.082032 9.9375 7.9102 18.07 17.848 18.152 4.6094-0.035156 9.2461-0.082032 13.824-0.375 45.199-2.9414 86.051-32.684 104.08-75.773l8.3203-19.887c6.9102-16.516 25.391-25.188 42.465-20.293-8.6094 15.969-11.117 35.211-5.5508 54.121l10.43 35.461c0.87109 3.207 1.9414 6.1055 2.8867 9.1953-15.676 44.465-39.93 74.672-63.738 101.83-28.652 32.684-90.75 71.016-132.89 82.031-9.6133 2.5078-15.375 12.352-12.859 21.961 2.1133 8.0977 9.4102 13.453 17.402 13.453 1.5078 0 3.0352-0.1875 4.5664-0.58594 49.508-12.938 117.18-54.715 150.86-93.117 18.84-21.496 39.051-46.402 55.523-78.672 16.488 32.316 36.68 57.191 55.504 78.664 33.668 38.414 101.34 80.191 150.86 93.129 1.5234 0.39844 3.0469 0.58594 4.5586 0.58594 7.9922 0 15.293-5.3555 17.402-13.453 2.5195-9.6094-3.2461-19.453-12.867-21.961-42.141-11.016-104.24-49.348-132.89-82.031-27-30.797-54.613-65.473-69.684-120.82l-10.527-35.812c-5.4492-18.539 4.6719-37.746 23.047-43.711 17.371-5.6484 36.59 3.1289 43.664 20.016l8.3164 19.898c18.027 43.09 58.887 72.832 104.08 75.773 4.582 0.29297 9.1875 0.35156 13.828 0.375 9.9375-0.082032 17.93-8.2148 17.848-18.152-0.082031-9.8906-8.1211-17.848-18-17.848h-0.15234c-3.7266 0-7.4883-0.070313-11.18-0.30469-24.363-1.5781-46.902-14.484-61.871-34.238 19.094-5.6211 37.293-12.516 54.426-20.547 41.715 36.328 74.859 88.367 93.203 150.75 14.004 47.602 17.051 99.223 9.0469 153.43l-9.668 65.461c-0.12891 0.88672-0.11719 1.7539-0.11719 2.625-0.003907 8.7852 6.3477 16.492 15.305 17.812 0.89062 0.12891 1.7695 0.1875 2.6484 0.1875 8.7773 0 16.465-6.4219 17.789-15.375l9.668-65.461c8.7539-59.391 5.3438-116.2-10.125-168.83-18.867-64.148-52.172-118.42-94.27-158.51 45.766-27.949 80.977-64.852 100.73-106.98l80.621 16.008c1.1836 0.23438 2.3555 0.35156 3.5273 0.35156 8.4141 0 15.926-5.9336 17.637-14.504 1.9336-9.75-4.4062-19.227-14.156-21.16l-75.359-14.961c3.5781-14.207 5.5391-28.828 5.5391-43.785 0-7.5039-0.63281-14.965-1.5742-22.406l71.395-14.176c9.7422-1.9375 16.082-11.41 14.148-21.16zm-391.97 196.61c-0.14062 0.29297-3.5742 7.207-20.539 7.0312-12.996-0.21094-18.965-4.3711-19.941-6.2461l-8.9844-37.391c11.258-3.7305 20.824-9.6836 28.473-18.004 0.22656-0.24609 0.37109-0.51953 0.58984-0.76562 0.22266 0.25 0.36328 0.51953 0.58984 0.76562 7.6602 8.3281 17.234 14.289 28.508 18.016zm267.18-102.09-52.383-10.398c-9.668-1.8906-19.207 4.3945-21.164 14.148-1.9336 9.75 4.4062 19.227 14.156 21.16l46.145 9.1602c-29.086 55.059-91.078 99-169.15 120.16l-2.8906-6.9141c-9.3789-22.406-29.344-37.66-51.887-42.281l8.4102-34.992c0.19922 0 0.37891 0.023438 0.57813 0.023438 0.60937 0 1.2188-0.007813 1.8281-0.011719 9.9375-0.14453 17.883-8.3164 17.742-18.258-0.14062-9.9375-8.1719-18.047-18.258-17.742-15.172 0.21094-26.574-3.3984-33.457-10.766-4.5117-4.8281-6.793-10.801-8-16.141l29.297-39.32c3.6133-4.8867 4.1797-11.391 1.4766-16.828-2.7344-5.4531-8.2969-8.875-14.391-8.875h-71.262c-6.0977 0-11.656 3.4258-14.391 8.875-2.7031 5.4375-2.1367 11.941 1.4766 16.828l29.293 39.312c-1.1992 5.2773-3.4414 11.191-7.8477 15.984-6.8672 7.4727-18.332 11.164-33.605 10.926-9.8086-0.25391-18.117 7.8047-18.258 17.742-0.14062 9.9453 7.8047 18.109 17.742 18.258 0.61328 0.007812 1.2188 0.011719 1.8281 0.011719 0.19531 0 0.375-0.019532 0.57031-0.023438l8.4062 34.996c-22.547 4.6211-42.5 19.875-51.875 42.277l-2.8906 6.9141c-78.074-21.16-140.07-65.098-169.15-120.16l46.148-9.1641c9.75-1.9336 16.09-11.41 14.148-21.16-1.9336-9.7422-11.391-16.066-21.16-14.148l-52.391 10.402c-3.1055-11.941-4.8164-24.219-4.8164-36.781 0-5.1445 0.28906-10.281 0.84766-15.402l56.359 11.191c1.1836 0.23438 2.3594 0.35156 3.5195 0.35156 8.4141 0 15.938-5.9336 17.637-14.504 1.9414-9.75-4.3984-19.227-14.148-21.16l-54.918-10.902c1.2031-3.2773 2.3398-6.5625 3.7773-9.8047 0.73828-1.6758 1.2266-3.4531 1.4297-5.2734 2.0977-18.672 7.2656-37.328 15.34-55.441 4.7109-10.547 6.9727-22.379 6.7148-35.156l-2.7891-139.44c-0.035156-1.7969 0.90234-2.8945 1.6953-3.4922 0.58594-0.44141 1.4414-0.88672 2.5312-0.88672 0.40234 0 0.83203 0.058594 1.2969 0.19922l143.39 43.578c3.4414 1.0469 7.125 1.0391 10.559-0.023437 63.973-19.816 134.38-19.809 198.36-0.007813 3.4414 1.0547 7.1133 1.0781 10.551 0.023438l143.37-43.57c1.7461-0.53906 3.0234 0.082031 3.832 0.68359 0.78516 0.59766 1.7227 1.6953 1.6875 3.4922l-2.8008 139.46c-0.24609 12.762 2.0039 24.586 6.7148 35.156 8.0859 18.094 13.254 36.75 15.375 55.441 0.19922 1.8164 0.67969 3.5859 1.418 5.25 1.4336 3.2461 2.5742 6.5352 3.7734 9.8125l-54.926 10.906c-9.75 1.9336-16.09 11.41-14.156 21.16 1.7109 8.5664 9.2227 14.504 17.637 14.504 1.1719 0 2.3438-0.11719 3.5273-0.35156l56.355-11.188c0.55859 5.1211 0.84375 10.258 0.84375 15.402-0.003906 12.559-1.7109 24.836-4.8203 36.777zm-369.5-108.38c0 16.945-13.738 30.684-30.691 30.684-16.945 0-30.691-13.738-30.691-30.684 0-16.953 13.746-30.691 30.691-30.691 16.953 0.003906 30.691 13.742 30.691 30.691zm225.23 0c0 16.945-13.738 30.684-30.691 30.684-16.945 0-30.684-13.738-30.684-30.684 0-16.953 13.738-30.691 30.684-30.691 16.953 0.003906 30.691 13.742 30.691 30.691z"/>
</svg>
