<?xml version="1.0" encoding="UTF-8"?>
<svg width="1200pt" height="1200pt" version="1.1" viewBox="0 0 1200 1200" xmlns="http://www.w3.org/2000/svg">
 <path d="m721.93 391.17c0 61.102-38.918 115.12-96.855 134.43-15.281 5.0898-25.449 20.797-24.707 38.18l21.051 496.28c0.42188 9.9258-7.2891 18.328-17.223 18.75-9.7266 0.41016-18.324-7.2891-18.742-17.227l-0.03125-0.76172-9.5117-224.17c-10.266 3.5781-21.117 5.1133-31.871 5.1133-31.348 0-61.609-11.906-72.34-16.605-51.82-3.5742-70.715-53.473-74.047-83.18-6.8281-13.652-8.3359-28.594-4.3555-43.465 9.7031-36.234 49.074-63.188 62.07-71.25 13.723-19.227 31.312-31.055 52.348-35.18 21.746-4.2812 42.75 0.90625 58.117 6.9727l-1.4336-33.75c-1.418-33.34 18.855-63.715 49.297-73.859 43.207-14.395 72.234-54.691 72.234-100.27 0-47.258-31.828-89.078-77.402-101.71-8.5469-2.3672-14.09-10.602-13.078-19.414 0.45312-3.8867 0.76172-7.8164 0.76172-11.824 0-55.711-45.328-101.04-101.05-101.04-22.508 0-43.867 7.3398-61.793 21.234-6.4922 5.0273-15.562 5.0273-22.055 0-17.918-13.891-39.281-21.234-61.781-21.234-55.715 0-101.05 45.328-101.05 101.04 0 4.0078 0.30859 7.9414 0.76172 11.824 1.0156 8.8047-4.5273 17.047-13.074 19.414-45.574 12.641-77.41 54.461-77.41 101.71 0 45.578 29.027 85.875 72.234 100.27 30.441 10.148 50.711 40.516 49.297 73.859l-12.078 284.83c27.547-3.543 56.422 7.3203 66.73 11.746 40.824 3.2578 56.004 41.941 58.906 65.625 5.3203 11.039 6.4531 23.086 3.2344 35.086-7.5117 28.066-36.984 48.844-47.844 55.699-10.828 14.777-25.117 24.258-41.566 27.48-4.5586 0.90234-9.0586 1.2891-13.434 1.2891-13.039 0-24.93-3.457-34.07-7.2148l-0.89062 20.988-0.03125 0.76172c-0.41016 9.668-8.3789 17.238-17.973 17.238-0.25781 0-0.51562 0-0.77344-0.011718-9.9297-0.42188-17.641-8.8242-17.223-18.75l21.047-496.29c0.73828-17.387-9.4219-33.082-24.707-38.18-57.93-19.297-96.855-73.32-96.855-134.42 0-58.383 36.23-110.59 89.727-131.7-0.007813-0.42187-0.007813-0.83594-0.007813-1.2539 0-75.562 61.484-137.04 137.05-137.04 26.062 0 50.977 7.2344 72.809 21.043 21.836-13.805 46.758-21.043 72.82-21.043 75.57 0 137.05 61.477 137.05 137.04 0 0.41797 0 0.83203-0.011719 1.2539 53.496 21.098 89.73 73.305 89.73 131.69zm-424.2-1.4219c0 36.195-24.477 65.641-54.555 65.641-30.082 0-54.551-29.449-54.551-65.641s24.469-65.641 54.551-65.641c30.082-0.003907 54.555 29.445 54.555 65.641zm-36 0c0-17.465-9.7773-29.641-18.555-29.641-8.7695 0-18.551 12.176-18.551 29.641s9.7773 29.641 18.551 29.641c8.7773 0 18.555-12.176 18.555-29.641zm285.22 0c0-36.195 24.477-65.641 54.555-65.641 30.086 0 54.555 29.449 54.555 65.641s-24.469 65.641-54.555 65.641c-30.078 0-54.555-29.449-54.555-65.641zm36 0c0 17.465 9.7773 29.641 18.555 29.641s18.555-12.176 18.555-29.641-9.7773-29.641-18.555-29.641c-8.7734-0.003907-18.555 12.172-18.555 29.641zm-298.61-127.93c0-38.391 25.672-69.629 57.223-69.629 31.547 0 57.219 31.234 57.219 69.629 0 38.391-25.672 69.629-57.219 69.629-31.551 0-57.223-31.238-57.223-69.629zm36 0c0 19.816 11.184 33.629 21.223 33.629s21.215-13.809 21.215-33.629c0-19.816-11.18-33.629-21.215-33.629-10.035 0.003906-21.223 13.812-21.223 33.629zm240 0c0 38.391-25.672 69.629-57.23 69.629-31.551 0-57.223-31.234-57.223-69.629 0-38.391 25.672-69.629 57.223-69.629 31.562 0.003906 57.23 31.238 57.23 69.629zm-36 0c0-19.816-11.184-33.629-21.23-33.629-10.039 0-21.223 13.809-21.223 33.629 0 19.816 11.184 33.629 21.223 33.629 10.047 0 21.23-13.812 21.23-33.629zm-230.44 200.47c0-41.414 27.117-75.152 60.578-75.578 13.137-34.285 38.613-55.637 67.863-55.637s54.727 21.352 67.863 55.637c33.461 0.42578 60.578 34.168 60.578 75.578 0 41.684-27.469 75.598-61.23 75.598-10.02 0-19.676-2.9297-28.297-8.4531-11.648 9.3047-25.031 14.277-38.918 14.277-13.887 0-27.266-4.9766-38.918-14.277-8.6172 5.5234-18.273 8.4531-28.301 8.4531-33.758 0-61.219-33.914-61.219-75.598zm36 0c0 21.094 11.789 39.598 25.227 39.598 7.1328 0 12.586-5.3438 15.199-8.5312 3.4219-4.168 8.5234-6.5742 13.91-6.5742h0.17578c5.4492 0.050781 10.578 2.5742 13.953 6.8516 5.0742 6.4219 13.348 14.078 23.984 14.078s18.91-7.6523 23.973-14.074c3.375-4.2852 8.5039-6.7969 13.953-6.8555 5.3789 0.17578 10.629 2.3594 14.086 6.5703 3.1992 3.8945 8.4375 8.5391 15.203 8.5391 13.441 0 25.23-18.504 25.23-39.598-0.007813-23.871-14.445-44.703-30.691-38.516-4.8242 1.832-10.207 1.5117-14.762-0.88672-4.5703-2.3906-7.8867-6.6328-9.1172-11.641-6.3906-26.012-21.965-44.172-37.875-44.172-15.91 0-31.484 18.164-37.875 44.172-1.2305 5.0117-4.5469 9.2539-9.1172 11.641-4.5586 2.4102-9.9258 2.7305-14.762 0.88672-16.246-6.1328-30.691 14.641-30.695 38.512zm719.18 302.05c-0.31641 0.32812-0.64453 0.64453-0.99609 0.96094l-119.44 106.88c-8.3203 7.4297-18.75 11.145-29.18 11.145-10.43 0.011719-20.859-3.7148-29.168-11.145l-119.44-106.88c-0.33984-0.30469-0.67969-0.63281-0.99609-0.96094-36.469-38.051-37.617-96.621-2.6484-136.25 14.402-16.32 33.703-27.117 55.816-31.23 28.934-5.4141 59.59 3.4023 84.129 24.117l12.305 10.383 12.328-10.395c24.562-20.719 55.266-29.531 84.164-24.094 22.09 4.1094 41.367 14.906 55.77 31.23 34.957 39.621 33.82 98.191-2.6484 136.24zm-24.352-112.43c-9.0234-10.23-21.246-17.027-35.355-19.652h-0.011719c-18.023-3.3398-38.32 2.6953-54.363 16.219l-23.602 19.91c-6.4805 5.4727-17.344 5.4844-23.848 0l-23.59-19.898c-16.043-13.535-36.352-19.582-54.34-16.242-14.133 2.625-26.379 9.4219-35.402 19.652-22.336 25.312-21.785 62.625 1.1953 87.059l118.89 106.38c2.9531 2.6484 7.3828 2.625 10.359 0l118.88-106.38c22.969-24.434 23.52-61.734 1.1953-87.047z"/>
</svg>
