<?xml version="1.0" encoding="UTF-8"?>
<svg width="1200pt" height="1200pt" version="1.1" viewBox="0 0 1200 1200" xmlns="http://www.w3.org/2000/svg">
 <path d="m1137.6 774.26v-33.75c0-14.137-7.0742-26.605-17.812-34.219v-484.88c0-23.156-18.844-42-42-42h-35.824c-22.238 0-40.316 17.434-41.73 39.324h-120.49c-9.9375 0-18 8.0547-18 18 0 9.9453 8.0625 18 18 18h120.22v25.203l-120.22-0.003906c-9.9375 0-18 8.0547-18 18s8.0625 18 18 18h120.22v25.207h-120.22c-9.9375 0-18 8.0547-18 18 0 9.9453 8.0625 18 18 18h120.22v25.207h-120.22c-9.9375 0-18 8.0547-18 18 0 9.9453 8.0625 18 18 18h120.22v25.207h-120.22c-9.9375 0-18 8.0547-18 18 0 9.9453 8.0625 18 18 18h120.22v25.207h-120.22c-9.9375 0-18 8.0547-18 18s8.0625 18 18 18h120.22v25.207h-120.22c-9.9375 0-18 8.0547-18 18 0 9.9453 8.0625 18 18 18h120.22v25.203h-120.22c-9.9375 0-18 8.0547-18 18 0 9.9453 8.0625 18 18 18h120.22v23.113c-10.738 7.6172-17.812 20.082-17.812 34.219v33.75c-5.918 7.2383-9.6211 16.359-9.6211 26.418v279.07c0 23.156 18.844 42 42 42h90.691c23.156 0 42-18.844 42-42v-279.07c0-10.059-3.7031-19.18-9.6211-26.422zm-101.64-552.84c0-3.3086 2.6953-6 6-6h35.824c3.3047 0 6 2.6914 6 6v477.09h-47.824zm-17.812 519.09c0-3.3086 2.6953-6 6-6h71.449c3.3047 0 6 2.6914 6 6v18.172h-83.449zm93.07 339.24c0 3.3047-2.6953 6-6 6h-90.691c-3.3047 0-6-2.6953-6-6v-279.07c0-3.3086 2.6953-6 6-6h90.691c3.3047 0 6 2.6914 6 6zm-754.05-757.93c0 15.52-12.582 28.102-28.105 28.102-15.52 0-28.109-12.582-28.109-28.102 0-15.523 12.59-28.105 28.109-28.105 15.523 0 28.105 12.582 28.105 28.105zm206.27 0c0 15.52-12.582 28.102-28.109 28.102-15.516 0-28.098-12.582-28.098-28.102 0-15.523 12.582-28.105 28.098-28.105 15.527 0 28.109 12.582 28.109 28.105zm247.9 12.398c-1.9453-9.7656-11.484-16.078-21.164-14.148l-65.031 12.91c-1.3945-4.0742-2.7852-8.1523-4.4961-12.172-2.5078-19.715-8.0508-39.293-16.5-58.227-2.2383-5.0039-3.3047-10.875-3.1641-17.453l2.5664-127.72c0.23438-12.258-5.4609-23.988-15.234-31.383-9.7852-7.3984-22.629-9.6719-34.336-6.1172l-126.11 38.32c-61.898-18.059-129.44-18.059-191.35 0l-126.11-38.32c-11.727-3.5703-24.562-1.2852-34.336 6.1172-9.7734 7.3984-15.461 19.129-15.215 31.395l2.5664 127.71c0.12891 6.5859-0.9375 12.461-3.1641 17.453-8.4492 18.93-13.996 38.504-16.512 58.219-1.7109 4.0234-3.1016 8.0977-4.4922 12.172l-65.027-12.91c-9.75-1.918-19.227 4.4062-21.16 14.148-1.9414 9.75 4.3984 19.227 14.148 21.16l63.953 12.699c-0.75781 6.4141-1.2422 12.852-1.2422 19.316 0 13.281 1.6875 26.273 4.7461 38.918l-67.457 13.395c-9.75 1.9336-16.09 11.41-14.148 21.16 1.6992 8.5664 9.2227 14.504 17.637 14.504 1.1602 0 2.3359-0.11719 3.5195-0.35156l72.664-14.426c16.328 34.238 43.758 64.66 79.133 88.945-26.828 24.773-46.887 56.742-57.348 92.992-14.98 51.891-22.543 104.14-22.77 156.39-34.27 48.289-54.5 107.2-54.5 170.79v27c0 43.008 34.992 78 78 78h5.4023c3.4531 26.473 25.898 47.051 53.297 47.051h78.484c27.398 0 49.844-20.578 53.297-47.051h144.61c3.4531 26.473 25.898 47.051 53.297 47.051h78.492c27.398 0 49.844-20.578 53.297-47.051h5.4023c43.008 0 78-34.992 78-78v-27c0-63.59-20.234-122.5-54.504-170.8-0.22266-52.25-7.7812-104.5-22.758-156.39-10.465-36.246-30.527-68.219-57.355-92.992 35.371-24.281 62.801-54.703 79.129-88.945l72.668 14.43c1.1836 0.23438 2.3555 0.35156 3.5273 0.35156 8.4141 0 15.926-5.9336 17.637-14.504 1.9336-9.75-4.4062-19.227-14.156-21.16l-67.465-13.395c3.0586-12.645 4.7461-25.637 4.7461-38.918 0-6.4648-0.48438-12.902-1.2422-19.316l63.961-12.699c9.7539-1.9375 16.094-11.41 14.16-21.16zm-626.94 686.19c-3.4375 5.7305-6.0195 11.895-7.7539 18.293h-7.2344c-23.156 0-42-18.844-42-42v-27c0-37.285 7.9531-72.73 22.156-104.82 3.6484 31.812 9.9805 63.57 19.113 95.195 4.1719 14.449 9.9375 28.453 17.145 41.637 2.9219 5.3438 2.3867 12.34-1.4258 18.691zm530.44-155.54c14.207 32.09 22.16 67.535 22.16 104.82v27c0 23.156-18.844 42-42 42h-7.2422c-1.7344-6.3945-4.3203-12.559-7.7578-18.293-3.8086-6.3516-4.3359-13.336-1.4062-18.691 7.1953-13.172 12.961-27.176 17.133-41.637 9.1289-31.625 15.461-63.387 19.113-95.203zm-53.695-212.37c28.5 98.742 28.5 198.86-0.011719 297.59-3.4453 11.941-8.1914 23.496-14.133 34.348-9.1172 16.688-8.3203 37.055 2.1328 54.48 3.375 5.6367 5.168 12.094 5.168 18.668v10.16c0 9.9258-8.0742 18-18 18h-78.492c-9.9258 0-18-8.0742-18-18v-10.16c0-8.9531 3.4219-17.684 9.6328-24.574 2.9766-3.3047 4.6172-7.6055 4.6172-12.047v-194.79c0-9.9453-8.0625-18-18-18s-18 8.0547-18 18v188.41c-5.3867 7.3086-9.1406 15.512-11.5 24.105h-148.71c-2.3555-8.5938-6.1133-16.797-11.5-24.105v-188.41c0-9.9453-8.0547-18-18-18-9.9453 0-18 8.0547-18 18v194.79c0 4.4414 1.6445 8.7422 4.6211 12.047 6.2031 6.8906 9.6289 15.621 9.6289 24.574v10.16c0 9.9258-8.0742 18-18 18h-78.484c-9.9258 0-18-8.0742-18-18v-10.16c0-6.5742 1.7891-13.031 5.1641-18.668 10.457-17.426 11.258-37.793 2.1406-54.48-5.9492-10.875-10.703-22.43-14.145-34.348-28.5-98.73-28.508-198.86 0-297.59 9.6406-33.402 29.246-62.301 55.406-83.492 49.152 25.414 108.99 40.398 173.53 40.398s124.37-14.984 173.52-40.398c26.164 21.191 45.77 50.09 55.41 83.492zm33.32-233.2-46.574-9.2461c-9.6562-1.918-19.207 4.3945-21.164 14.148-1.9336 9.75 4.4062 19.227 14.156 21.16l40.23 7.9883c-38.191 70.098-135.34 120.05-248.91 120.05-113.57 0-210.72-49.957-248.91-120.05l40.234-7.9883c9.75-1.9336 16.09-11.41 14.148-21.16-1.9336-9.7422-11.395-16.066-21.16-14.148l-46.582 9.25c-2.582-10.379-4.0039-21.031-4.0039-31.918 0-4.1016 0.26953-8.1992 0.66406-12.285l49.922 9.9102c1.1836 0.23438 2.3594 0.35156 3.5195 0.35156 8.4141 0 15.938-5.9336 17.637-14.5 1.9414-9.75-4.3984-19.227-14.148-21.16l-48.539-9.6367c0.91797-2.4141 1.7227-4.8398 2.7812-7.2305 0.73828-1.6719 1.2266-3.4453 1.4297-5.2617 1.918-16.961 6.6055-33.891 13.934-50.32 4.4062-9.8594 6.5195-20.914 6.2812-32.848l-2.5625-127.71c-0.011719-0.81641 0.30469-1.4766 0.95312-1.9609 0.44141-0.33203 0.91016-0.49609 1.4062-0.49609 0.23828 0 0.48438 0.035157 0.73828 0.10938l131.32 39.902c3.4336 1.0547 7.1172 1.0312 10.559-0.023438 58.277-18.047 122.48-18.047 180.77 0 3.4453 1.0664 7.1016 1.082 10.559 0.023438l131.31-39.902c0.78516-0.24609 1.4883-0.10156 2.1445 0.38672 0.64453 0.49219 0.97266 1.1523 0.94922 1.957l-2.5664 127.7c-0.23437 11.922 1.875 22.98 6.2812 32.859 7.3359 16.43 12.023 33.363 13.945 50.328 0.19922 1.8164 0.67969 3.5898 1.418 5.2617 1.0586 2.3906 1.8672 4.8203 2.7852 7.2344l-48.535 9.6367c-9.75 1.9336-16.09 11.41-14.156 21.16 1.7109 8.5664 9.2227 14.5 17.637 14.5 1.1719 0 2.3438-0.11719 3.5273-0.35156l49.918-9.9102c0.39062 4.0859 0.66406 8.1797 0.66406 12.285 0 10.879-1.4219 21.531-4.0039 31.91zm-188.43 49.184c0.14062 9.9453-7.8047 18.117-17.742 18.258-0.5625 0.007812-1.1367 0.011718-1.6992 0.011718-23.242 0-41.5-6.9961-54.391-20.68-12.887 13.684-31.145 20.68-54.395 20.68-0.5625 0-1.125-0.007812-1.6953-0.011718-9.9375-0.14062-17.883-8.3164-17.742-18.258 0.14062-9.9375 8.6367-18.035 18.258-17.742 13.695 0.33984 23.652-3.0078 29.641-9.5195 4.1875-4.5586 6.1523-10.297 7.1133-15.203l-25.637-34.41c-3.3086-4.4766-3.8281-10.43-1.3516-15.41 2.5039-4.9922 7.5977-8.1289 13.18-8.1289h65.266c5.582 0 10.676 3.1367 13.18 8.1289 2.4766 4.9766 1.957 10.934-1.3516 15.41l-25.641 34.414c0.96875 4.9727 2.9805 10.785 7.2578 15.355 5.9883 6.4023 16.078 9.5469 29.496 9.3633h0.25781c9.8281 0 17.855 7.8906 17.996 17.742z"/>
</svg>
