<?xml version="1.0" encoding="UTF-8"?>
<svg width="1200pt" height="1200pt" version="1.1" viewBox="0 0 1200 1200" xmlns="http://www.w3.org/2000/svg">
 <path d="m990.39 100.04h-240.39v-18.34c0-23.156-18.844-42-42-42h-216c-23.156 0-42 18.844-42 42v18.34h-240.39c-23.156 0-42 18.844-42 42v976.27c0 23.156 18.844 42 42 42h780.78c23.156 0 42-18.844 42-42l0.003906-976.27c0-23.156-18.844-42-42-42zm-504.39-18.34c0-3.3086 2.6953-6 6-6h216c3.3047 0 6 2.6914 6 6v76.246c0 3.3086-2.6953 6-6 6h-216c-3.3047 0-6-2.6914-6-6zm510.39 1036.6c0 3.3047-2.6953 6-6 6h-780.78c-3.3086 0-6-2.6953-6-6v-976.26c0-3.3086 2.6914-6 6-6h240.39v21.91c0 23.156 18.844 42 42 42h216c23.156 0 42-18.844 42-42v-21.91h240.39c3.3047 0 6 2.6914 6 6zm-561.82-376.37h-59.191c-16.547 0-30 13.453-30 30v59.191c0 16.547 13.453 30 30 30h59.191c16.547 0 30-13.453 30-30v-59.191c0-16.543-13.453-30-30-30zm-6 83.191h-47.191v-47.191h47.191zm426.06-23.602c0 9.9375-8.0625 18-18 18h-308.92c-9.9375 0-18-8.0625-18-18s8.0625-18 18-18h308.92c9.9375 0 18 8.0625 18 18zm-420.06 106.69h-59.191c-16.547 0-30 13.453-30 30v59.191c0 16.547 13.453 30 30 30h59.191c16.547 0 30-13.453 30-30v-59.191c0-16.543-13.453-30-30-30zm-6 83.191h-47.191v-47.191h47.191zm426.06-23.59c0 9.9375-8.0625 18-18 18h-308.92c-9.9375 0-18-8.0625-18-18s8.0625-18 18-18h308.92c9.9375 0 18 8.0625 18 18zm27.035-491.57c-1.9453-9.7617-11.473-16.078-21.164-14.148l-43.418 8.6211c-0.57812-1.5312-1.0391-3.082-1.6758-4.6016-1.9336-14.633-6.0938-29.148-12.363-43.207-1.3359-3-1.9688-6.5859-1.8867-10.676l1.875-93.293c0.19922-10.492-4.6758-20.543-13.043-26.883-8.3906-6.332-19.359-8.2969-29.426-5.2422l-90.727 27.57c-45.234-12.902-94.418-12.902-139.68 0l-90.715-27.562c-10.066-3.0469-21.07-1.1016-29.438 5.25-8.3789 6.3398-13.242 16.395-13.031 26.883l1.875 93.238c0.082032 4.1094-0.5625 7.7031-1.8984 10.703-6.2695 14.051-10.418 28.578-12.34 43.219-0.64062 1.5195-1.0977 3.0742-1.6797 4.6055l-43.426-8.625c-9.75-1.9414-19.227 4.3984-21.16 14.148-1.9414 9.75 4.3984 19.227 14.148 21.16l42.41 8.4219c-0.27734 3.3906-0.51562 6.7891-0.51562 10.199 0 8.375 1.1094 16.543 2.7266 24.586l-44.621 8.8594c-9.75 1.9336-16.09 11.41-14.148 21.16 1.6992 8.5664 9.2227 14.504 17.637 14.504 1.1602 0 2.3359-0.11719 3.5195-0.35156l49.648-9.8555c32.266 63.066 114.48 108.11 210.85 108.11 96.367 0 178.58-45.039 210.85-108.11l49.648 9.8555c1.1836 0.23437 2.3555 0.35156 3.5273 0.35156 8.4141 0 15.926-5.9336 17.637-14.504 1.9336-9.75-4.4062-19.227-14.156-21.16l-44.621-8.8555c1.6133-8.0469 2.7266-16.215 2.7266-24.59 0-3.4102-0.23828-6.8086-0.51562-10.199l42.41-8.4219c9.7539-1.9375 16.094-11.41 14.16-21.16zm-93.969 57.379-29.23-5.8008c-9.6445-1.9023-19.219 4.3945-21.164 14.148-1.9336 9.75 4.4062 19.227 14.156 21.16l22.754 4.5156c-29.062 46.629-96.184 79.379-174.21 79.379-78.027 0-145.15-32.746-174.21-79.379l22.746-4.5156c9.75-1.9336 16.09-11.41 14.156-21.16-1.9453-9.7617-11.508-16.098-21.164-14.148l-29.219 5.8008c-1.1289-5.7734-1.918-11.617-1.918-17.602 0-1.043 0.13281-2.0781 0.16797-3.1211l30.969 6.1484c1.1836 0.23438 2.3555 0.35156 3.5273 0.35156 8.4141 0 15.926-5.9336 17.637-14.504 1.9336-9.75-4.4062-19.227-14.156-21.16l-29.828-5.9219c0.66797-1.582 1.1523-3.2344 1.3398-4.9453 1.3359-11.891 4.6289-23.77 9.7852-35.316 3.5039-7.8477 5.1914-16.609 5.0156-26.07l-1.793-88.992 91.805 27.895c3.457 1.0586 7.125 1.043 10.559-0.023438 41.672-12.891 87.504-12.891 129.15 0 3.4453 1.0664 7.1016 1.082 10.559 0.023438l91.816-27.902-1.793 89.004c-0.1875 9.4219 1.4883 18.195 5.0039 26.074 5.1562 11.559 8.4609 23.445 9.8086 35.32 0.1875 1.7031 0.66797 3.3516 1.3281 4.9258l-29.84 5.9258c-9.75 1.9336-16.09 11.41-14.156 21.16 1.7109 8.5664 9.2227 14.504 17.637 14.504 1.1719 0 2.3438-0.11719 3.5273-0.35156l30.98-6.1523c0.035157 1.043 0.16797 2.0781 0.16797 3.1211 0 5.9922-0.78906 11.836-1.918 17.609zm-146.92 23.816h-0.25781c-8.6836 0.31641-14.484-1.6445-17.883-5.2617-3.6055-3.8203-4.4336-9.582-4.6094-12.812 0.007812-0.32031 0.015624-0.58984 0.015624-0.89062l14.434-19.371c2.418-3.2695 2.7969-7.6172 0.98828-11.254-1.8281-3.6484-5.5469-5.9375-9.625-5.9375h-47.664c-4.0781 0-7.7969 2.293-9.625 5.9375-1.8086 3.6367-1.4297 7.9844 0.98828 11.254l14.438 19.379c0.003906 0.28906 0.007813 0.54688 0.015625 0.85547-0.17188 3.2227-0.99219 9-4.6094 12.832-3.3047 3.5039-9.0469 5.2734-17.098 5.2734-0.35156 0-0.75 0-1.0547-0.007813-9.8203 0-17.859 7.8906-18 17.742-0.12891 9.2383 6.75 16.859 15.695 18.02l5.3281 22.176c0.26953 1.0469 0.70312 2.6484 1.6289 4.5469 2.168 4.418 11.121 18.723 35.426 18.723 0.39844 0.007813 0.76172 0 1.1484 0 24.633 0 33.551-14.355 35.695-18.773 0.89062-1.8047 1.3359-3.4258 1.6289-4.5859l5.3047-22.082c8.9453-1.1602 15.824-8.7812 15.695-18.02-0.14453-9.8477-8.1719-17.742-18.004-17.742zm-31.816 49.363c-0.98438 0.73438-3.5859 1.8477-8.7656 1.8477-0.1875-0.007813-0.41016-0.011719-0.63281 0-5.1328 0-7.6992-1.1836-8.4727-1.6758l-4.4492-18.527c5.5156-2.3477 9.9141-5.25 13.363-8.2266 3.4492 2.9766 7.8477 5.8789 13.363 8.2227zm-63.75-138.67c0 11.332-9.1914 20.523-20.527 20.523-11.332 0-20.527-9.1875-20.527-20.523 0-11.34 9.1953-20.527 20.527-20.527 11.336-0.003906 20.527 9.1875 20.527 20.527zm150.64 0c0 11.332-9.1875 20.523-20.527 20.523-11.332 0-20.523-9.1875-20.523-20.523 0-11.34 9.1875-20.527 20.523-20.527 11.336-0.003906 20.527 9.1875 20.527 20.527z"/>
</svg>
