<?xml version="1.0" encoding="UTF-8"?>
<svg width="1200pt" height="1200pt" version="1.1" viewBox="0 0 1200 1200" xmlns="http://www.w3.org/2000/svg">
 <path d="m843.03 493.11c-30.629 14.582-66.055 29.414-93.551 38.871-17.359-15.547-37.883-26.477-60.586-31.594-5.1172-22.703-16.039-43.219-31.562-60.559 9.4453-27.492 24.246-62.918 38.84-93.566 2.9531-6.2031 2.1211-13.547-2.1562-18.93-4.2656-5.3867-11.227-7.8594-17.941-6.3906-67.797 14.82-98.875 48.137-113.12 73.367-37.574-2.0664-75.832 11.066-104.46 39.707-0.29688 0.29688-0.59766 0.59766-0.89062 0.89453-12.184-5.293-24.895-8.6758-37.742-10.367 0.3125-22.941 1.5352-48.145 3.4609-71.234 0.57422-6.8516-2.8008-13.422-8.7031-16.953-5.8984-3.5195-13.285-3.3867-19.043 0.35938-63.395 41.199-78.309 87.555-80.82 115.94-4.7695 3.6719-9.3906 7.6016-13.727 11.941-43.203 43.203-53.879 108.92-26.566 163.54 7.207 14.414 3.2891 32.695-9.5195 44.473l-180.4 165.71c-7.3242 6.7266-7.8047 18.105-1.0781 25.43 6.7148 7.3242 18.109 7.8047 25.43 1.0781l0.5625-0.51562 179.84-165.2c24.574-22.582 31.711-58.395 17.359-87.082-20.367-40.734-12.402-89.754 19.824-121.98 33.422-33.418 85.52-40.484 126.66-17.184 7.7539 4.3828 17.496 2.4648 22.984-4.5078 2.7305-3.4531 5.2773-6.3516 7.8047-8.8789 39.398-39.398 103.5-39.398 142.9 0 15.902 15.91 25.816 36.203 28.676 58.711 1.043 8.1445 7.4531 14.559 15.598 15.59 22.488 2.8398 42.785 12.762 58.699 28.676 19.078 19.082 29.59 44.453 29.59 71.449 0 26.988-10.512 52.359-29.59 71.449-2.5664 2.5547-5.4609 5.1094-8.8594 7.793-6.9727 5.5078-8.8945 15.27-4.5234 23.004 23.309 41.156 16.242 93.234-17.18 126.66-32.227 32.238-81.246 40.219-121.98 19.828-28.723-14.367-64.516-7.207-87.082 17.367l-165.2 179.83-0.51172 0.55859c-6.7266 7.3242-6.2461 18.703 1.0781 25.43 3.457 3.1758 7.8164 4.7461 12.172 4.7461 4.8633 0 9.7148-1.957 13.262-5.8242l165.73-180.39c11.77-12.82 30.059-16.734 44.465-9.5156 54.613 27.293 120.32 16.617 163.53-26.578 4.3242-4.3242 8.2422-8.9297 11.906-13.684 28.391-2.5234 74.797-17.496 115.98-80.863 3.7383-5.7656 3.8789-13.148 0.35156-19.043-3.5273-5.9062-9.9961-9.1875-16.945-8.707-23.098 1.9297-48.309 3.1523-71.25 3.4648-1.6953-12.848-5.0781-25.559-10.371-37.742 0.30469-0.29297 0.59766-0.58594 0.89062-0.87891 25.887-25.887 40.137-60.293 40.137-96.902 0-2.5547-0.23047-5.0664-0.37109-7.5977 25.23-14.254 58.523-45.34 73.332-113.1 1.4648-6.7148-1.0195-13.676-6.3984-17.941-5.4023-4.2852-12.75-5.0977-18.926-2.1562zm-459.26-68.742c-9.0391 1.1172-17.953 3.1133-26.637 5.9375 5.0117-11.883 13.379-25.391 27.633-39.359-0.50391 10.445-0.83594 21.879-0.99609 33.422zm244.21-9.5469c-8.6094-5.3828-17.68-9.6758-27.047-12.965 8.7969-11.312 22.887-23.953 45.879-34.027-6.2422 14.383-12.898 30.762-18.832 46.992zm136.94 390.68c11.547-0.15625 22.98-0.48438 33.43-0.98438-13.977 14.27-27.496 22.648-39.375 27.66 2.8281-8.6953 4.8281-17.625 5.9453-26.676zm22.551-217.27c-3.3242-9.418-7.6523-18.441-12.988-26.938 16.219-5.9297 32.582-12.582 46.953-18.824-10.055 22.879-22.664 36.945-33.965 45.762zm108.23-447.48c-4.7227 0-9.4336-1.8398-12.949-5.5039-6.8438-7.1172-6.7383-18.363 0.32812-25.266 1.0781-1.0586 11.074-10.566 29.531-18.926 9.0586-4.1406 19.723-0.09375 23.824 8.9648 4.1016 9.0586 0.09375 19.723-8.9648 23.824-12.609 5.7109-19.266 11.918-19.336 11.977-3.4922 3.2891-7.9688 4.9297-12.434 4.9297zm23.227 307.47c14.707-9.4336 107.06-90.828 128.21-133.8 4.3945-8.9219 15.199-12.574 24.094-8.2031 8.918 4.3906 12.598 15.176 8.2031 24.094-25.711 52.262-131.41 145.63-146.55 151.04-2.0039 0.71484-4.043 1.0547-6.0586 1.0547-7.3945 0-14.32-4.5859-16.945-11.949-3.1289-8.7227 0.90234-18.27 9.0469-22.234zm147.93 183.37c7.3828 6.6562 7.9688 18.035 1.3008 25.418-12.984 14.402-29.367 28.641-48.68 42.316-3.1641 2.2383-6.7969 3.3164-10.395 3.3164-5.6367 0-11.191-2.6367-14.695-7.5938-5.7539-8.1094-3.832-19.348 4.2773-25.09 17.156-12.164 31.547-24.633 42.773-37.066 6.6562-7.3828 18.035-7.9688 25.418-1.3008zm-84.785 71.027c4.7812 8.7188 1.582 19.664-7.1367 24.434-25.688 14.062-52.957 25.91-62.098 26.965-0.69141 0.082031-1.3945 0.11719-2.0859 0.11719-9.0117 0-16.793-6.7617-17.859-15.938-1.1133-9.6094 5.5664-18.316 15.023-19.84 4.6172-1.1953 24.68-9.1641 49.723-22.875 8.707-4.7578 19.664-1.5938 24.434 7.1367zm-547.66-436.75c4.3906-18.855 107.11-142.28 170.41-167.91 9.1953-3.7383 19.715 0.70703 23.445 9.9258 3.7266 9.2109-0.71484 19.703-9.9258 23.438-52.152 21.121-139.57 126.9-149.57 145.02-2.6523 7.0234-9.418 11.617-16.809 11.617-1.3555 0-2.7266-0.15234-4.1016-0.47656-9.6797-2.25-15.703-11.926-13.449-21.609zm434.68-118.59c3.5391 9.2891-1.1133 19.688-10.395 23.234-28.359 10.816-96.375 82.074-110.26 108.09-3.2344 6.0703-9.457 9.5352-15.891 9.5352-2.8594 0-5.7656-0.68359-8.4609-2.1289-8.7656-4.6758-12.082-15.578-7.4062-24.352 17.684-33.145 90.973-110.2 129.18-124.77 9.3281-3.5586 19.688 1.1055 23.238 10.398zm248.3 455.99c-9.5977 12.07-15.012 16.594-16.441 17.695-3.2695 2.5078-7.125 3.7266-10.957 3.7266-5.4023 0-10.746-2.4258-14.285-7.0312-5.9766-7.7812-4.6172-18.891 3-25.004 0.38672-0.33984 3.8906-3.4805 10.512-11.797 6.1875-7.7695 17.531-9.0664 25.289-2.8828 7.7812 6.1914 9.0703 17.52 2.8828 25.293z"/>
</svg>
