<?xml version="1.0" encoding="UTF-8"?>
<svg width="1200pt" height="1200pt" version="1.1" viewBox="0 0 1200 1200" xmlns="http://www.w3.org/2000/svg">
 <path d="m972.3 607.21-69.199-13.738c3.1719-12.992 4.9219-26.34 4.9219-39.992 0-6.6953-0.51953-13.355-1.3125-19.996l65.59-13.023c9.75-1.9336 16.09-11.41 14.156-21.16-1.957-9.7656-11.484-16.078-21.164-14.148l-66.645 13.23c-1.4531-4.2695-2.918-8.5391-4.7109-12.75-2.4727-19.391-7.8281-38.66-15.938-57.328-2.8828-6.6211-4.2891-12.98-4.1719-18.859l2.6836-133.32c0.23438-11.941-5.2969-23.379-14.824-30.59-9.5273-7.2188-22.066-9.4414-33.48-5.9727l-130.59 39.684c-63.164-18.445-132.07-18.445-195.23 0l-130.61-39.684c-11.414-3.4531-23.941-1.2422-33.461 5.9648-9.5273 7.207-15.07 18.645-14.828 30.59l2.6758 133.33c0.11719 5.8828-1.2891 12.234-4.1836 18.887-8.1055 18.664-13.457 37.926-15.922 57.305-1.793 4.2109-3.2617 8.4805-4.7109 12.75l-66.648-13.23c-9.75-1.918-19.227 4.4062-21.16 14.148-1.9414 9.75 4.3984 19.227 14.148 21.16l65.594 13.023c-0.79688 6.6406-1.3164 13.301-1.3164 19.996 0 13.652 1.75 27 4.9219 39.992l-69.199 13.738c-9.75 1.9336-16.09 11.41-14.148 21.16 1.6992 8.5664 9.2227 14.496 17.637 14.496 1.1602 0 2.3359-0.10547 3.5195-0.33984l74.414-14.777c16.676 35.102 44.797 66.281 81.102 91.121-27.488 25.273-48.039 57.953-58.742 95.02-12.309 42.656-19.816 86.098-22.312 129.11-0.57422 9.9258 7.0039 18.434 16.926 19.008 0.35938 0.023438 0.70703 0.035157 1.0586 0.035157 9.4609 0 17.395-7.3828 17.953-16.957 0.019531-0.34766 0.070312-0.69922 0.089844-1.0469 2.3984-39.996 9.4023-80.418 20.867-120.16 9.8828-34.238 30.008-63.836 56.852-85.52 50.137 25.965 111.2 41.281 177.09 41.281 65.883 0 126.95-15.312 177.08-41.277 26.84 21.684 46.957 51.281 56.836 85.516 11.48 39.754 18.48 80.176 20.887 120.16 0.019531 0.34766 0.070313 0.69922 0.089844 1.0469 0.5625 9.9023 8.8359 17.578 19.008 16.922 9.9258-0.57422 17.496-9.082 16.922-19.008-2.4844-42.996-9.9961-86.426-22.312-129.11-10.691-37.066-31.238-69.746-58.727-95.02 36.305-24.84 64.422-56.02 81.098-91.121l74.414 14.777c1.1836 0.23438 2.3555 0.33984 3.5273 0.33984 8.4141 0 15.926-5.9297 17.637-14.496 1.9414-9.7539-4.3984-19.227-14.148-21.16zm-632.23-109.53c0.73828-1.6758 1.2266-3.4531 1.4297-5.2656 1.8867-16.746 6.4258-33.48 13.488-49.734 4.9688-11.426 7.3789-22.848 7.1523-33.953l-2.6758-133.33c0-0.21484-0.011718-0.72656 0.57031-1.168 0.30859-0.23438 0.59766-0.30469 0.82812-0.30469 0.19531 0 0.35156 0.046874 0.44531 0.078124l135.81 41.266c3.4414 1.0469 7.125 1.0391 10.559-0.023438 59.543-18.441 125.12-18.426 184.64 0 3.4453 1.0547 7.1016 1.082 10.559 0.023438l135.8-41.266c0.23437-0.050781 0.73828-0.17969 1.2891 0.23047 0.57422 0.43359 0.5625 0.94531 0.55078 1.1602l-2.6836 133.35c-0.21094 11.113 2.2031 22.543 7.1602 33.93 7.0664 16.254 11.613 32.992 13.512 49.754 0.19922 1.8164 0.67969 3.5859 1.418 5.2578 1.1445 2.5781 2.0234 5.1992 3.0039 7.8008l-28.059 5.5703c1.918-7.8594 3.0469-16.027 3.0469-24.469 0-57.023-46.395-103.41-103.42-103.41-44.309 0-82.082 28.059-96.773 67.301h-75.457c-14.691-39.242-52.465-67.301-96.773-67.301-57.023 0-103.41 46.391-103.41 103.41 0 8.4453 1.1289 16.609 3.0469 24.469l-28.051-5.5703c0.98047-2.6094 1.8594-5.2227 3-7.8047zm355.12 13.652 64.055-64.055c4.6875-4.6875 12.281-4.6875 16.969 0s4.6875 12.281 0 16.969l-64.055 64.055c-2.3438 2.3438-5.4141 3.5156-8.4844 3.5156s-6.1406-1.1719-8.4844-3.5156c-4.6875-4.6875-4.6875-12.281 0-16.969zm-8.5312-29.172c-3.0703 0-6.1406-1.1719-8.4844-3.5156-4.6875-4.6875-4.6875-12.289 0-16.969l33.246-33.238c4.6875-4.6875 12.281-4.6875 16.969 0s4.6875 12.289 0 16.969l-33.246 33.238c-2.3438 2.3438-5.4141 3.5156-8.4844 3.5156zm-260.48 29.172 64.055-64.055c4.6875-4.6875 12.281-4.6875 16.969 0s4.6875 12.281 0 16.969l-64.055 64.055c-2.3438 2.3438-5.4141 3.5156-8.4844 3.5156-3.0703 0-6.1406-1.1719-8.4844-3.5156-4.6875-4.6875-4.6875-12.281 0-16.969zm-8.5312-29.172c-3.0703 0-6.1406-1.1719-8.4844-3.5156-4.6875-4.6875-4.6875-12.281 0-16.969l33.238-33.238c4.6875-4.6875 12.281-4.6875 16.969 0s4.6875 12.281 0 16.969l-33.238 33.238c-2.3438 2.3438-5.4141 3.5156-8.4844 3.5156zm450.18 104.31-47.859-9.5c-9.6562-1.918-19.207 4.3945-21.164 14.148-1.9336 9.75 4.4062 19.227 14.156 21.16l41.539 8.25c-38.867 71.859-138.27 123.11-254.52 123.11s-215.65-51.246-254.52-123.11l41.539-8.25c9.75-1.9336 16.09-11.41 14.148-21.16-1.9258-9.7422-11.371-16.055-21.16-14.148l-47.859 9.5c-2.6953-10.723-4.1836-21.734-4.1836-32.992 0-4.332 0.26953-8.6562 0.69922-12.969l51.344 10.191c1.1836 0.23438 2.3594 0.35156 3.5195 0.35156 0.38281 0 0.72266-0.16797 1.1016-0.19141 18.961 23.805 48.133 39.129 80.859 39.129 57.023 0 103.41-46.391 103.41-103.41 0-0.039062-0.007812-0.074219-0.007812-0.10938h62.203c0 0.039063-0.007813 0.074219-0.007813 0.10938 0 57.023 46.383 103.41 103.41 103.41 32.727 0 61.898-15.324 80.863-39.129 0.375 0.023437 0.71875 0.19141 1.0977 0.19141 1.1719 0 2.3438-0.11719 3.5273-0.35156l51.344-10.195c0.42578 4.3164 0.69922 8.6406 0.69922 12.973 0.007813 11.254-1.4766 22.266-4.1758 32.992zm-192.88 49.754c0.14062 9.9453-7.8047 18.109-17.742 18.254-0.57422 0.011719-1.1602 0.011719-1.7344 0.011719-23.754 0-42.395-7.1523-55.492-21.195-13.102 14.047-31.73 21.195-55.484 21.195-0.57422 0-1.1484 0-1.7344-0.011719-9.9375-0.14062-17.883-8.3086-17.742-18.254 0.14062-9.9297 8.6367-17.598 18.258-17.742 14.156 0.17578 24.34-3.1055 30.516-9.8281 4.2344-4.6094 6.2617-10.383 7.2734-15.375l-26.449-35.496c-3.375-4.5664-3.9062-10.641-1.3789-15.723 2.5547-5.0938 7.75-8.293 13.445-8.293h66.586c5.6953 0 10.891 3.1992 13.445 8.293 2.5234 5.0781 1.9961 11.156-1.3789 15.723l-26.449 35.5c1.0234 5.0547 3.0898 10.895 7.4258 15.523 6.1875 6.6133 16.113 9.7266 30.375 9.6719 10.176 0.19141 18.121 7.8086 18.262 17.746z"/>
</svg>
