<?xml version="1.0" encoding="UTF-8"?>
<svg width="1200pt" height="1200pt" version="1.1" viewBox="0 0 1200 1200" xmlns="http://www.w3.org/2000/svg">
 <path d="m255.77 512.55c0 11.258-9.125 20.383-20.387 20.383-11.258 0-20.387-9.125-20.387-20.383 0-11.262 9.1328-20.387 20.387-20.387 11.262 0 20.387 9.125 20.387 20.387zm129.23-20.387c-11.258 0-20.383 9.125-20.383 20.387 0 11.258 9.125 20.383 20.383 20.383 11.262 0 20.387-9.125 20.387-20.383 0-11.262-9.1289-20.387-20.387-20.387zm190.89 49.578-42.016 8.3398c0.26953 3.3359 0.50781 6.6797 0.50781 10.035 0 8.2812-1.0938 16.359-2.6836 24.32l44.191 8.7734c9.75 1.9336 16.09 11.41 14.148 21.16-1.6992 8.5664-9.2227 14.496-17.637 14.496-1.1602 0-2.3359-0.10547-3.5195-0.33984l-49.219-9.7734c-11.586 22.609-29.488 42.91-52.359 59.574 17.953 17.941 31.512 40.277 38.781 65.477 8.8633 30.691 14.266 61.969 16.059 92.93 0.57422 9.9258-7.0078 18.434-16.926 19.008-0.35938 0.023438-0.70703 0.035157-1.0586 0.035157-9.4609 0-17.395-7.3945-17.953-16.957-0.019532-0.34766-0.070313-0.69922-0.089844-1.0469-1.582-26.113-6.0742-52.465-13.184-78.465-18.469 16.617-47.973 28.641-82.266 35.812-2.0742 8.4531-6.2227 16.523-12.703 23.289-0.31641 0.32812-0.64844 0.64453-0.99609 0.96094l-20.574 18.406-27.316 24.438c-5.3867 4.8164-12.137 7.2188-18.887 7.2188s-13.5-2.4023-18.879-7.2188l-27.32-24.438-20.574-18.406c-0.34766-0.31641-0.67969-0.63281-0.99609-0.96094-6.4766-6.7617-10.625-14.832-12.699-23.289-34.297-7.1719-63.805-19.195-82.273-35.812-7.1055 26-11.598 52.352-13.188 78.465-0.019531 0.34766-0.070313 0.69922-0.089844 1.0469-0.57812 9.9258-8.9414 17.555-19.016 16.922-9.9258-0.57422-17.504-9.082-16.926-19.008 1.7969-30.961 7.2031-62.227 16.059-92.93 7.2773-25.203 20.836-47.539 38.789-65.477-22.871-16.664-40.77-36.969-52.359-59.574l-49.219 9.7734c-1.1836 0.23437-2.3594 0.33984-3.5234 0.33984-8.4141 0-15.938-5.9297-17.637-14.496-1.9414-9.75 4.3984-19.227 14.148-21.16l44.191-8.7734c-1.5898-7.9609-2.6836-16.039-2.6836-24.32 0-3.3555 0.23828-6.6953 0.50781-10.035l-42.016-8.3398c-9.75-1.9336-16.09-11.41-14.148-21.16 1.9336-9.7422 11.422-16.074 21.16-14.148l43.027 8.543c0.5625-1.4844 1.0078-2.9883 1.625-4.4648 1.8516-14.035 5.7539-27.961 11.617-41.449 1.7461-4.0312 2.6016-7.8164 2.5391-11.242l-1.9023-94.785c-0.20312-10.152 4.5078-19.875 12.605-26.004 8.1055-6.1211 18.742-8.0195 28.449-5.0703l91.371 27.762c44.965-12.809 93.766-12.809 138.72 0l91.379-27.762c9.707-2.9531 20.352-1.0664 28.453 5.0742 8.0898 6.1289 12.801 15.852 12.59 26.004l-1.8984 94.781c-0.070312 3.4219 0.78516 7.2031 2.543 11.25 5.8594 13.492 9.7617 27.422 11.613 41.445 0.61719 1.4727 1.0625 2.9805 1.625 4.4648l43.027-8.543c9.7656-1.9609 19.227 4.3984 21.16 14.148 1.9336 9.7461-4.4062 19.223-14.156 21.156zm-223.56 231.25c-2.5391-2.8711-5.7969-3.9961-8.0781-4.418-4.0586-0.77344-8.8711 0.78516-12.859 4.1484l-9.4609 7.9805c-6.4922 5.4844-16.977 5.4844-23.465 0l-9.457-7.9805c-3.9805-3.3516-8.7969-4.9219-12.867-4.1484-2.2852 0.42188-5.5391 1.5352-8.0859 4.418-5.1328 5.8242-5.1094 14.367-0.011719 20.086l42.16 37.723 42.16-37.723c5.0859-5.7188 5.1094-14.25-0.035157-20.086zm104.28-51.047c-5.957-9.0234-13.012-17.223-21.18-24.227-35.781 17.906-78.887 28.375-125.23 28.375-46.348 0-89.453-10.465-125.23-28.375-8.1719 7.0039-15.227 15.203-21.188 24.23 3.9609 12.535 29.762 27.977 70.543 37.172 1.8633-3.4805 4.0078-6.8555 6.7383-9.9531 7.4141-8.3789 17.262-13.898 28.512-15.984 13.984-2.625 28.66 1.1719 40.629 10.395 11.992-9.2344 26.684-12.984 40.676-10.395h0.007812c11.25 2.1094 21.086 7.6406 28.453 16.008 2.7266 3.0898 4.8711 6.457 6.7344 9.9297 40.785-9.1953 66.586-24.641 70.543-37.176zm41.773-161.83c0-0.98828-0.125-1.9688-0.16016-2.957l-30.625 6.0781c-1.1836 0.23438-2.3594 0.35156-3.5195 0.35156-8.4141 0-15.938-5.9336-17.637-14.504-1.9414-9.75 4.3984-19.227 14.148-21.16l29.5-5.8555c-0.62891-1.5352-1.1094-3.1367-1.3008-4.7891-1.2852-11.387-4.3828-22.789-9.1992-33.879-3.8359-8.8398-5.6914-17.695-5.5078-26.328l1.7812-88.996-91.023 27.656c-3.4336 1.0547-7.1211 1.043-10.555-0.023438-41.355-12.797-86.828-12.797-128.2 0-3.4414 1.0664-7.1133 1.0781-10.551 0.023438l-91.023-27.656 1.7891 89.016c0.17578 8.6406-1.6797 17.488-5.5078 26.309-4.8164 11.086-7.918 22.484-9.1992 33.879-0.1875 1.6523-0.67188 3.2539-1.3008 4.7891l29.496 5.8555c9.75 1.9336 16.09 11.41 14.148 21.16-1.6992 8.5664-9.2227 14.504-17.637 14.504-1.1602 0-2.3359-0.11719-3.5195-0.35156l-30.621-6.0781c-0.03125 0.98438-0.16016 1.9688-0.16016 2.957 0 5.8906 0.76953 11.648 1.875 17.336l28.906-5.7383c9.7773-1.918 19.23 4.4062 21.16 14.148 1.9414 9.75-4.3984 19.227-14.148 21.16l-22.406 4.4492c28.891 46.191 95.449 78.625 172.81 78.625s143.92-32.43 172.81-78.625l-22.414-4.4492c-9.75-1.9336-16.09-11.41-14.148-21.16 1.9336-9.75 11.414-16.078 21.16-14.148l28.91 5.7383c1.0938-5.6875 1.8633-11.445 1.8633-17.336zm-147.95 41.008c-8.3203 0.26562-14.316-1.6289-17.672-5.1836-3.5625-3.7734-4.375-9.4805-4.5469-12.668 0.007812-0.375 0.011718-0.67188 0.011718-1.0156l14.219-19.082c2.4023-3.2461 2.7773-7.5664 0.98047-11.176-1.8164-3.6211-5.5117-5.8945-9.5586-5.8945h-47.34c-4.0469 0-7.7422 2.2734-9.5586 5.8945-1.793 3.6094-1.418 7.9297 0.98047 11.176l14.219 19.086c0.003906 0.33984 0.003906 0.63281 0.011719 1.0039-0.16797 3.1797-0.98047 8.8906-4.5469 12.668-3.3594 3.5625-9.1406 5.4531-17.676 5.1914-10.152 0.23438-18.117 7.7969-18.258 17.742-0.14062 9.9375 7.8047 18.117 17.742 18.258 0.42188 0 0.83594 0.011718 1.2539 0.011718 19.332 0 31.754-6.4414 39.504-13.105 7.7461 6.6641 20.168 13.105 39.496 13.105 0.41016 0 0.83203-0.011718 1.2539-0.011718 9.9375-0.14062 17.883-8.3203 17.742-18.258-0.14062-9.9414-8.5391-17.559-18.258-17.742zm464.57-108.96c-11.258 0-20.387 9.125-20.387 20.387 0 11.258 9.1328 20.383 20.387 20.383 11.262 0 20.387-9.125 20.387-20.383 0-11.262-9.1289-20.387-20.387-20.387zm149.61 0c-11.258 0-20.383 9.125-20.383 20.387 0 11.258 9.125 20.383 20.383 20.383 11.262 0 20.387-9.125 20.387-20.383 0-11.262-9.125-20.387-20.387-20.387zm205.04 122.2c-1.7109 8.5664-9.2227 14.496-17.637 14.496-1.1719 0-2.3438-0.10547-3.5273-0.33984l-49.207-9.7734c-11.586 22.609-29.488 42.91-52.363 59.578 17.949 17.941 31.508 40.277 38.781 65.473 8.8594 30.668 14.262 61.934 16.055 92.93 0.58594 9.9258-6.9961 18.434-16.922 19.008-0.35156 0.023437-0.70313 0.035156-1.0547 0.035156-9.4688 0-17.402-7.3828-17.953-16.957-0.019531-0.34766-0.070313-0.69922-0.089844-1.0469-1.6016-26.137-6.0859-52.484-13.195-78.461-21.16 19.039-56.844 32.043-97.523 38.648 0.17969 1.9648 0.30078 3.9453 0.30078 5.9531 0 12.402-3.5234 23.965-9.5352 33.863-11.496 18.938-32.254 31.656-55.973 31.656-23.727 0-44.488-12.719-55.984-31.656-6.0078-9.8984-9.5352-21.461-9.5352-33.863 0-2.0117 0.125-3.9883 0.30078-5.9531-40.684-6.6055-76.371-19.613-97.531-38.652-7.1016 25.992-11.586 52.355-13.188 78.469-0.019531 0.34766-0.070312 0.69922-0.089844 1.0469-0.57422 9.9258-9.2109 17.59-19.008 16.922-9.9258-0.57422-17.508-9.082-16.922-19.008 1.793-30.973 7.1953-62.238 16.043-92.93 7.2773-25.203 20.836-47.539 38.793-65.477-22.871-16.664-40.773-36.965-52.359-59.574l-49.211 9.7734c-1.1836 0.23437-2.3555 0.33984-3.5273 0.33984-8.4141 0-15.926-5.9297-17.637-14.496-1.9336-9.75 4.4062-19.227 14.156-21.16l44.18-8.7695c-1.5898-7.9609-2.6836-16.039-2.6836-24.324 0-3.3555 0.23828-6.6992 0.51172-10.035l-42.008-8.3398c-9.75-1.9336-16.09-11.41-14.156-21.16 1.9453-9.7578 11.52-16.055 21.164-14.148l43.023 8.543c0.5625-1.4844 1.0078-2.9844 1.625-4.457 1.8398-13.996 5.7422-27.926 11.613-41.449 1.7578-4.043 2.6133-7.8242 2.543-11.25l-1.9102-94.785c-0.19922-10.152 4.5117-19.875 12.609-26.004 8.1094-6.1289 18.727-8.0391 28.453-5.0703l91.371 27.762c44.953-12.809 93.785-12.809 138.71 0l91.371-27.762c9.7148-2.9727 20.332-1.0586 28.453 5.0703 8.0977 6.1289 12.809 15.852 12.609 25.996l-1.9102 94.793c-0.070312 3.4219 0.78516 7.2031 2.5312 11.238 5.8711 13.516 9.7852 27.445 11.637 41.453 0.61719 1.4727 1.0625 2.9766 1.625 4.4609l43.012-8.5391c9.668-1.9453 19.207 4.3906 21.164 14.148 1.9336 9.75-4.4062 19.227-14.156 21.16l-42.004 8.3359c0.26953 3.3359 0.50781 6.6797 0.50781 10.035 0 8.2812-1.0938 16.363-2.6836 24.324l44.18 8.7695c9.75 1.9375 16.09 11.41 14.156 21.16zm-250.34 189.54c0-16.277-13.242-29.52-29.508-29.52-16.277 0-29.52 13.242-29.52 29.52s13.242 29.52 29.52 29.52c16.266 0 29.508-13.242 29.508-29.52zm116.9-81.957c-5.957-9.0234-13.008-17.227-21.18-24.227-35.781 17.906-78.887 28.371-125.23 28.371-46.348 0-89.457-10.469-125.24-28.375-8.168 7.0039-15.223 15.203-21.18 24.227 4.6953 14.875 40.168 33.844 94.926 41.586 12.004-15.277 30.602-25.141 51.496-25.141 20.887 0 39.48 9.8672 51.484 25.145 54.754-7.7461 90.223-26.711 94.926-41.586zm41.781-161.83c0-0.98828-0.125-1.9727-0.16016-2.957l-30.625 6.082c-1.1836 0.23438-2.3555 0.35156-3.5273 0.35156-8.4141 0-15.926-5.9336-17.637-14.504-1.9336-9.75 4.4062-19.227 14.156-21.16l29.508-5.8594c-0.63672-1.5352-1.1172-3.1367-1.3008-4.7891-1.2891-11.371-4.3828-22.773-9.2109-33.879-3.832-8.8047-5.6836-17.668-5.5195-26.309l1.793-89.016-91.02 27.656c-3.457 1.0586-7.125 1.043-10.559-0.023438-41.344-12.797-86.824-12.797-128.19 0-3.4336 1.0664-7.1016 1.082-10.559 0.023438l-91.02-27.656 1.793 89.016c0.16406 8.6484-1.6875 17.508-5.5312 26.328-4.8164 11.105-7.9102 22.492-9.1875 33.844-0.17969 1.6641-0.66406 3.2656-1.3008 4.8086l29.496 5.8555c9.75 1.9336 16.09 11.41 14.156 21.16-1.7109 8.5664-9.2227 14.504-17.637 14.504-1.1719 0-2.3438-0.11719-3.5273-0.35156l-30.625-6.082c-0.035156 0.98828-0.16016 1.9688-0.16016 2.957 0 5.8906 0.76953 11.648 1.875 17.336l28.91-5.7383c9.6797-1.9453 19.219 4.3906 21.164 14.148 1.9336 9.75-4.4062 19.227-14.156 21.16l-22.414 4.4492c28.891 46.191 95.449 78.625 172.82 78.625 77.363 0 143.92-32.43 172.81-78.625l-22.414-4.4492c-9.75-1.9336-16.09-11.41-14.156-21.16 1.957-9.7578 11.508-16.047 21.164-14.148l28.91 5.7383c1.1055-5.6875 1.875-11.445 1.875-17.336zm-147.7 41.008h-0.25781c-8.2383 0.17578-14.309-1.6211-17.672-5.1914-3.5234-3.7266-4.3594-9.3398-4.5469-12.547 0.011719-0.41797 0.015625-0.76172 0.019531-1.1406l14.211-19.074c2.4023-3.2461 2.7773-7.5664 0.98047-11.176-1.8164-3.6211-5.5117-5.8945-9.5586-5.8945h-47.34c-4.0508 0-7.7422 2.2734-9.5586 5.8945-1.793 3.6094-1.418 7.9297 0.98047 11.176l14.211 19.074c0.003907 0.37109 0.007813 0.70312 0.015625 1.1094-0.18359 3.2031-1.0117 8.8359-4.5469 12.574-3.2578 3.4531-8.9297 5.1992-16.875 5.1992-0.36328 0-0.72656 0-1.0547-0.007812-9.832 0-17.859 7.8906-18 17.742-0.14062 9.9375 7.8047 18.117 17.742 18.258 0.42188 0 0.84375 0.011718 1.2539 0.011718 19.324 0 31.75-6.4414 39.5-13.102 7.7539 6.6641 20.172 13.102 39.496 13.102 0.41016 0 0.83203-0.011718 1.2539-0.011718 9.9375-0.14063 17.883-8.3203 17.742-18.258-0.13672-9.8438-8.1641-17.738-17.996-17.738z"/>
</svg>
