<?xml version="1.0" encoding="UTF-8"?>
<svg width="1200pt" height="1200pt" version="1.1" viewBox="0 0 1200 1200" xmlns="http://www.w3.org/2000/svg">
 <path d="m842.27 542.99c-26.449 0-47.977 21.527-47.977 47.984 0 26.449 21.527 47.977 47.977 47.977 26.449 0 47.977-21.527 47.977-47.977 0-26.457-21.527-47.984-47.977-47.984zm0 59.957c-6.6094 0-11.977-5.3711-11.977-11.977 0-6.6094 5.3672-11.984 11.977-11.984 6.6094 0 11.977 5.3711 11.977 11.984 0 6.6055-5.3672 11.977-11.977 11.977zm74.004-11.977c0-9.9453 8.0625-18 18-18h237.23c9.9375 0 18 8.0547 18 18 0 9.9453-8.0625 18-18 18h-237.23c-9.9375 0-18-8.0547-18-18zm-74.004 114.05c-26.449 0-47.977 21.527-47.977 47.977 0 26.449 21.527 47.977 47.977 47.977 26.449 0 47.977-21.527 47.977-47.977 0-26.449-21.527-47.977-47.977-47.977zm0 59.953c-6.6094 0-11.977-5.3672-11.977-11.977s5.3672-11.977 11.977-11.977c6.6094 0 11.977 5.3672 11.977 11.977s-5.3672 11.977-11.977 11.977zm347.24-11.977c0 9.9375-8.0625 18-18 18h-237.23c-9.9375 0-18-8.0625-18-18s8.0625-18 18-18h237.23c9.9375 0 18 8.0625 18 18zm-347.24 114.04c-26.449 0-47.977 21.527-47.977 47.988 0 26.449 21.527 47.977 47.977 47.977 26.449 0 47.977-21.527 47.977-47.977 0-26.461-21.527-47.988-47.977-47.988zm0 59.965c-6.6094 0-11.977-5.3672-11.977-11.977s5.3672-11.988 11.977-11.988c6.6094 0 11.977 5.3789 11.977 11.988s-5.3672 11.977-11.977 11.977zm347.24-11.977c0 9.9375-8.0625 18-18 18h-237.23c-9.9375 0-18-8.0625-18-18s8.0625-18 18-18h237.23c9.9375 0 18 8.0625 18 18zm-523.68-302.13 2.9648-61.906c28.484-23.535 50.75-51.176 64.988-81.543l80.609 16.004c1.1836 0.23438 2.3555 0.35156 3.5273 0.35156 8.4141 0 15.926-5.9336 17.637-14.504 1.9336-9.75-4.4062-19.227-14.156-21.16l-75.352-14.961c3.5781-14.211 5.543-28.828 5.543-43.785 0-7.5039-0.63672-14.969-1.5781-22.406l71.387-14.172c9.75-1.9336 16.09-11.41 14.156-21.16-1.957-9.7617-11.484-16.074-21.164-14.148l-72.383 14.371c-1.6523-4.9453-3.3867-9.8828-5.4648-14.758-2.7188-21.469-8.7422-42.762-17.93-63.332-2.5312-5.6602-3.7383-12.309-3.5859-19.754l2.8008-139.46c0.25781-12.855-5.707-25.16-15.961-32.922-10.254-7.7656-23.73-10.168-36.023-6.4219l-138.17 41.988c-67.609-19.816-141.35-19.805-208.96 0l-138.17-41.988c-12.297-3.7266-25.766-1.3359-36.023 6.4258-10.254 7.7578-16.219 20.062-15.953 32.918l2.8008 139.45c0.15234 7.4219-1.0586 14.074-3.5898 19.758-9.1992 20.609-15.223 41.898-17.922 63.34-2.0781 4.875-3.8164 9.8086-5.4688 14.754l-72.387-14.371c-9.7656-1.9414-19.219 4.3984-21.16 14.148s4.4023 19.227 14.148 21.16l71.387 14.172c-0.94141 7.4375-1.5781 14.902-1.5781 22.406 0 14.957 1.9648 29.574 5.543 43.785l-75.352 14.961c-9.75 1.9336-16.09 11.41-14.148 21.16 1.6992 8.5664 9.2227 14.504 17.637 14.504 1.1602 0 2.3359-0.11719 3.5195-0.35156l80.609-16.004c19.754 42.129 54.961 79.027 100.73 106.98-42.102 40.098-75.406 94.383-94.266 158.54-15.477 52.641-18.879 109.44-10.113 168.82l9.6562 65.449c1.3203 8.9414 9.0078 15.375 17.785 15.375 0.87109 0 1.7578-0.058594 2.6484-0.1875 8.9531-1.3242 15.312-9.0312 15.301-17.816 0-0.86719 0.007812-1.7344-0.12109-2.6211l-9.6562-65.449c-7.9961-54.188-4.957-105.81 9.0352-153.42 18.344-62.402 51.492-114.45 93.211-150.78 38.211 17.914 81.75 30.219 128.5 35.25l-74.824 131.91c-0.53125-0.64453-1.1445-1.2969-1.6562-1.9414-6.1758-7.793-17.484-9.082-25.289-2.9297-7.793 6.1758-9.1016 17.496-2.9297 25.289 9.8867 12.48 22.934 25.184 37.734 36.738 44.02 34.395 101.63 48.059 158.05 37.477 16.191-3.082 32.328 7.0547 36.68 22.945 4.5938 16.793-4.8477 33.902-21.496 38.977l-33.691 10.266c-44.508 14.531-86.148 20.027-123.82 16.43-34.047-3.2812-75.664-25.465-103.54-55.219-6.7969-7.2539-18.188-7.6172-25.441-0.83203-7.2617 6.7969-7.6289 18.188-0.83203 25.441 3.9961 4.2656 8.2461 8.3633 12.641 12.328l-22.773 40.145-14.945 26.348c-5.5391 9.75-6.9375 21.082-3.9531 31.898 2.9883 10.816 10.008 19.816 19.766 25.348l156.6 88.828c6.4023 3.6328 13.488 5.4844 20.652 5.4844 3.7578 0 7.5273-0.50391 11.242-1.5352 10.816-2.9766 19.824-9.9961 25.355-19.758l88.84-156.61 8.9414-15.762c16.535-6.3086 29.273-18.367 36.605-33.215 16.074 3.543 32.957 5.5039 49.828 5.5039 10.898 0 21.773-0.77344 32.367-2.3672 9.832-1.4883 16.594-10.652 15.117-20.484-1.4883-9.832-10.734-16.641-20.484-15.117-22.867 3.4336-47.605 2.0977-70.055-2.957-0.34375-4.1953-1.0508-8.4219-2.2031-12.641-9.2656-33.832-43.57-55.301-78.027-48.832-4.7969 0.89844-9.6055 1.4531-14.406 1.9297-13.277-14.145-25.98-30.176-37.988-48.23l-19.887-28.629c-9.9258-14.297-6.7266-33.586 7.2773-43.91 13.266-9.7852 32.168-7.7227 43.008 4.6992 37.734 43.277 91.414 68.262 147.27 68.543 18.645-0.011719 36.871-1.793 52.398-5.4609 9.6797-2.2969 15.656-12 13.371-21.668-2.3086-9.6797-12-15.68-21.668-13.371-3.5195 0.83594-7.2422 1.5234-11.086 2.125l40.258-70.969c14.195 23.906 25.953 50.441 34.438 79.297 14.016 47.602 17.062 99.223 9.0469 153.42l-9.6562 65.473c-0.12891 0.88281-0.11719 1.7539-0.11719 2.6211 0 8.7852 6.3594 16.496 15.305 17.816 9.7617 1.3711 18.973-5.3555 20.438-15.188l9.6562-65.473c8.7656-59.391 5.3555-116.19-10.125-168.83-13.641-46.391-34.902-87.551-61.477-122.04zm-304.79 195.89c-10.801-4.9805-21.078-11.113-30.535-18.5-1.168-0.91406-2.2461-1.8633-3.3828-2.7891l22.195-39.129c2.0273 6.207 4.6758 12.301 8.6094 17.965l14.969 21.551zm-158.28 210.1c-1.8828-1.0664-2.5742-2.7305-2.8203-3.6211s-0.50391-2.6719 0.5625-4.5469l35.273-62.184c11.375 7.3867 23.254 13.793 35.293 18.867l-38.723 68.27zm60.902 34.547 42.602-75.102c4.8438 0.96875 9.6641 1.793 14.371 2.2461 8.6133 0.83203 17.395 1.2422 26.32 1.2422 1.1211 0 2.2891-0.14062 3.4141-0.15234l-51.906 91.508zm103.88 52.02c-1.0664 1.8867-2.7266 2.5781-3.6211 2.8242-0.90234 0.23437-2.6953 0.49219-4.5586-0.5625l-29.582-16.781 64.062-112.94c17.18-2.5664 34.777-6.5508 52.715-11.844zm303.72-605.84 2.0195-42.188 24.25 4.8164c-6.9453 13.148-15.801 25.645-26.27 37.371zm-229.29 166.52c-13.59-6.168-28.871-7.7891-43.441-4.5l55.887-98.527 34.797 19.738zm28.562 22.609 49.996-88.137 34.805 19.742-53.395 94.129c-11.363-7.1445-21.875-15.809-31.406-25.734zm105.13 49.816c-14.109-0.95313-27.988-3.6602-41.277-8.3242l52.262-92.133 34.801 19.738zm53.742-117.59-106.77-60.559-40.652-23.059 89.703-59.633 62.875 35.664zm-1.0547-224.14-126.25 83.922c0.007812-0.26562 0.070312-0.51172 0.066406-0.77734-0.14453-9.9375-8.4883-18.016-18.258-17.742-15.105 0.035157-26.578-3.3984-33.457-10.766-4.5078-4.8281-6.7891-10.801-8-16.141l29.297-39.32c3.6133-4.8867 4.1797-11.391 1.4766-16.824-2.7344-5.4531-8.2969-8.875-14.391-8.875h-71.266c-6.0938 0-11.656 3.4258-14.391 8.875-2.7031 5.4375-2.1367 11.941 1.4766 16.824l29.301 39.324c-1.2109 5.3359-3.4922 11.309-8.0039 16.137-6.8867 7.3633-18.492 10.797-33.457 10.766-10.125-0.23047-18.117 7.8047-18.258 17.742-0.14062 9.9453 7.8047 18.109 17.742 18.258 0.61328 0.007813 1.2188 0.011719 1.8281 0.011719 25.242 0 45.023-7.5938 58.797-22.582 0.23047-0.25 0.37109-0.51953 0.59375-0.76953 0.22266 0.25 0.36719 0.52344 0.59375 0.76953 12.57 13.68 30.195 21.125 52.363 22.332l-38.48 25.578c-2.3516 1.5586-4.2969 3.6484-5.6914 6.1055l-37.16 65.512c-113.28-7.6797-207.84-60.797-245.96-132.94l46.156-9.1641c9.75-1.9336 16.09-11.41 14.148-21.16-1.9336-9.7422-11.355-16.043-21.16-14.148l-52.395 10.402c-3.1094-11.941-4.8164-24.223-4.8164-36.781 0-5.1445 0.28906-10.285 0.84766-15.402l56.363 11.191c1.1836 0.23437 2.3594 0.35156 3.5195 0.35156 8.4141 0 15.938-5.9375 17.637-14.504 1.9414-9.75-4.3984-19.227-14.148-21.16l-54.922-10.902c1.2031-3.2773 2.3398-6.5625 3.7773-9.8008 0.73828-1.6758 1.2266-3.4531 1.4297-5.2734 2.1055-18.68 7.2656-37.328 15.352-55.441 4.7109-10.57 6.9648-22.398 6.7031-35.156l-2.793-139.45c-0.035157-1.7969 0.90234-2.8945 1.6953-3.4922 0.58594-0.44141 1.4414-0.88672 2.5391-0.88672 0.39844 0 0.83203 0.058594 1.2969 0.19922l143.38 43.574c3.4336 1.0469 7.1172 1.0391 10.559-0.023437 63.961-19.824 134.38-19.816 198.36-0.007813 3.4336 1.0547 7.1172 1.0781 10.551 0.023438l143.38-43.57c1.7461-0.51562 3.0234 0.082032 3.832 0.68359 0.78516 0.59766 1.7227 1.6953 1.6875 3.4922l-2.8008 139.46c-0.24609 12.793 2.0156 24.629 6.7148 35.164 8.0742 18.059 13.242 36.707 15.363 55.43 0.19922 1.8164 0.67969 3.5898 1.4297 5.2617 1.4336 3.2383 2.5703 6.5234 3.7695 9.8008l-54.934 10.906c-9.75 1.9336-16.09 11.41-14.156 21.16 1.7109 8.5664 9.2227 14.504 17.637 14.504 1.1719 0 2.3438-0.11719 3.5273-0.35156l56.367-11.191c0.55859 5.1211 0.84375 10.258 0.84375 15.406 0 12.559-1.7109 24.84-4.8164 36.781l-36.059-7.1602c-0.26953-10.488-5.7344-20.07-14.965-25.309-9.918-5.6172-21.941-5.1914-31.41 1.1211zm-287.08-77.031c0 16.945-13.738 30.684-30.691 30.684-16.945 0-30.691-13.738-30.691-30.684 0-16.953 13.746-30.691 30.691-30.691 16.953 0 30.691 13.738 30.691 30.691zm225.23 0c0 16.945-13.738 30.684-30.691 30.684-16.945 0-30.684-13.738-30.684-30.684 0-16.953 13.738-30.691 30.684-30.691 16.949 0 30.691 13.738 30.691 30.691z"/>
</svg>
