<?xml version="1.0" encoding="UTF-8"?>
<svg width="1200pt" height="1200pt" version="1.1" viewBox="0 0 1200 1200" xmlns="http://www.w3.org/2000/svg">
 <path d="m1006.9 972.7-26.859-532.69c-5.8281-115.7-88.328-209.7-196.83-234.46-4.2656-97.492-84.684-175.55-183.21-175.55s-178.95 78.059-183.21 175.55c-108.49 24.758-191 118.76-196.83 234.46l-26.855 532.7c-2.6172 51.902 15.664 101.23 51.477 138.89s84.16 58.406 136.13 58.406h438.59c51.973 0 100.32-20.742 136.14-58.418 35.812-37.664 54.094-86.988 51.469-138.88zm-406.9-906.7c76.781 0 140 58.941 146.93 133.95-6.75-0.53906-13.527-0.99609-20.414-0.99609h-19.633c-7.1992-52.617-52.316-93.328-106.88-93.328-54.559 0-99.684 40.711-106.88 93.328h-19.641c-6.8828 0-13.656 0.45703-20.406 0.99609 6.9336-75.004 70.148-133.95 146.93-133.95zm70.488 132.95h-140.98c6.793-32.688 35.812-57.328 70.488-57.328s63.691 24.641 70.488 57.328zm258.86 887.84c-28.957 30.445-68.039 47.215-110.05 47.215h-438.59c-42.012 0-81.086-16.77-110.04-47.215-28.953-30.445-43.73-70.312-41.613-112.28l26.855-532.68c5.8555-116 101.42-206.88 217.57-206.88h253.04c116.17 0 211.73 90.867 217.57 206.88l26.859 532.68c2.1172 41.953-12.66 81.832-41.605 112.28zm-500.05-151.89c-31.637 0-57.375 25.734-57.375 57.375 0 31.641 25.742 57.375 57.375 57.375 31.637 0 57.375-25.734 57.375-57.375 0-31.641-25.742-57.375-57.375-57.375zm0 78.75c-11.789 0-21.375-9.5859-21.375-21.375 0-11.789 9.5859-21.375 21.375-21.375 11.789 0 21.375 9.5859 21.375 21.375 0 11.789-9.5859 21.375-21.375 21.375zm170.71-78.75c-31.637 0-57.375 25.734-57.375 57.375 0 31.641 25.738 57.375 57.375 57.375 31.641 0 57.375-25.734 57.375-57.375 0-31.641-25.734-57.375-57.375-57.375zm0 78.75c-11.789 0-21.375-9.5859-21.375-21.375 0-11.789 9.5859-21.375 21.375-21.375s21.375 9.5859 21.375 21.375c0 11.789-9.5859 21.375-21.375 21.375zm170.71-78.75c-31.641 0-57.375 25.734-57.375 57.375 0 31.641 25.734 57.375 57.375 57.375s57.375-25.734 57.375-57.375c0-31.641-25.734-57.375-57.375-57.375zm0 78.75c-11.789 0-21.375-9.5859-21.375-21.375 0-11.789 9.5859-21.375 21.375-21.375 11.789 0 21.375 9.5859 21.375 21.375 0 11.789-9.5859 21.375-21.375 21.375zm-170.71-719.98c-157.1 0-284.9 127.8-284.9 284.9 0 157.1 127.8 284.91 284.9 284.91 157.1 0 284.91-127.8 284.91-284.91 0-157.09-127.8-284.9-284.91-284.9zm0 533.8c-137.24 0-248.9-111.66-248.9-248.91 0-137.24 111.66-248.9 248.9-248.9 137.25 0 248.91 111.66 248.91 248.9 0 137.25-111.66 248.91-248.91 248.91zm0-461.78c-117.38 0-212.88 95.496-212.88 212.88 0 117.39 95.496 212.88 212.88 212.88 117.39 0 212.88-95.496 212.88-212.88 0-117.39-95.496-212.88-212.88-212.88zm132.63 208.11c1.7109 8.5664 9.2227 14.504 17.637 14.504 1.1719 0 2.3438-0.11719 3.5273-0.35156l22.84-4.5352c-0.19531 7.207-0.86328 14.285-1.8984 21.254l-20.941-4.1562c-9.6797-1.9023-19.207 4.3945-21.164 14.148-1.9336 9.75 4.4062 19.219 14.156 21.164l19.016 3.7734c-24.934 67.504-89.742 115.85-165.8 115.85-76.059 0-140.86-48.348-165.8-115.85l19.008-3.7734c9.75-1.9453 16.09-11.414 14.148-21.164-1.9258-9.75-11.387-16.082-21.16-14.148l-20.934 4.1562c-1.0391-6.9688-1.7031-14.047-1.8984-21.25l22.836 4.5312c1.1836 0.23438 2.3594 0.35156 3.5195 0.35156 8.4141 0 15.938-5.9336 17.637-14.504 1.9414-9.75-4.3984-19.227-14.148-21.16l-27.145-5.3867c14.848-82.621 87.105-145.56 173.93-145.56 86.832 0 159.09 62.941 173.94 145.56l-27.148 5.3906c-9.75 1.9375-16.09 11.41-14.156 21.16zm-88.348 58.91h-0.25781c-9.5273 0.28125-16.582-1.957-20.59-6.2227-3.7188-3.9492-4.9961-9.7812-5.3555-13.898l17.18-23.059c2.625-3.5508 3.0352-8.2734 1.0742-12.223-1.9844-3.9609-6.0273-6.4492-10.453-6.4492h-51.766c-4.4297 0-8.4688 2.4883-10.453 6.4492-1.9609 3.9492-1.5508 8.6719 1.0742 12.223l17.176 23.055c-0.35156 4.1172-1.625 9.9531-5.3438 13.902-4.0156 4.2656-11.078 6.5508-20.598 6.2227-10.066-0.26953-18.117 7.8047-18.258 17.742-0.13672 9.5078 7.1562 17.324 16.488 18.113l6.0312 25.105c0.41016 1.6992 0.9375 3.2109 1.6641 4.7344 2.2617 4.6406 11.625 19.664 37.391 19.664h1.1758c26.047 0 35.387-15.047 37.621-19.652 0.89062-1.8281 1.3594-3.5039 1.6641-4.7344l6.043-25.117c9.332-0.78906 16.629-8.6055 16.492-18.113-0.14062-9.8555-8.168-17.742-18-17.742zm-33.406 52.746c-0.87891 0.80859-3.7734 2.625-11.012 2.6133-7.5508 0.070313-9.9727-1.8633-10.734-2.5078l-5.2305-21.773c6.8047-2.7539 12.133-6.3047 16.09-9.8945 3.957 3.5938 9.2891 7.1445 16.098 9.8984zm-70.387-151.28c0 12.309-9.9805 22.289-22.293 22.289-12.309 0-22.293-9.9805-22.293-22.289 0-12.312 9.9844-22.293 22.293-22.293 12.312 0 22.293 9.9766 22.293 22.293zm163.6 0c0 12.309-9.9805 22.289-22.293 22.289-12.309 0-22.289-9.9805-22.289-22.289 0-12.312 9.9805-22.293 22.289-22.293 12.312 0 22.293 9.9766 22.293 22.293z"/>
</svg>
