<?xml version="1.0" encoding="UTF-8"?>
<svg width="1200pt" height="1200pt" version="1.1" viewBox="0 0 1200 1200" xmlns="http://www.w3.org/2000/svg">
 <path d="m891.91 409.03 73.918-4.8711c9.9141-0.64844 17.426-9.2227 16.781-19.141-0.65625-9.9219-9.4219-17.52-19.148-16.777l-68.621 4.5234c-0.31641-13.008-2.0508-25.992-5.4883-38.824-1.6758-6.2422-3.8086-12.336-6.1992-18.332l58.488-28.816c8.918-4.3945 12.586-15.188 8.1914-24.105-4.4062-8.9219-15.199-12.578-24.105-8.1914l-59.465 29.297c-2.4023-3.5781-4.8008-7.1562-7.4961-10.602-7.5352-18.391-17.965-35.859-31.02-51.949-3.4453-4.2539-5.9883-9.6562-7.5703-16.055l-30.59-124.01c-2.9297-11.898-11.449-21.762-22.805-26.379-11.344-4.6172-24.352-3.5039-34.77 2.9727l-111.89 69.656c-32.191-0.73438-64.484 3.2031-95.93 11.625-31.465 8.4297-61.34 21.172-88.898 37.898l-131.73-4.3789c-12.082-0.46875-24.059 5.1328-31.582 14.805-7.5234 9.6719-9.9805 22.477-6.5742 34.246l35.539 122.71c1.8281 6.3086 2.3203 12.258 1.457 17.668-3.2656 20.488-3.5547 40.828-0.87109 60.512-0.60938 4.3281-0.89844 8.6289-1.1914 12.926l-66.156 4.3594c-9.9219 0.64844-17.43 9.2227-16.773 19.141 0.62891 9.5156 8.5391 16.816 17.941 16.816 0.39844 0 0.79688-0.011719 1.2031-0.042969l65.062-4.2852c0.92969 6.3945 2.1289 12.738 3.8008 18.98 3.4375 12.828 8.4805 24.906 14.711 36.332l-61.754 30.426c-8.918 4.3945-12.586 15.188-8.1914 24.105 3.1367 6.3594 9.5195 10.047 16.16 10.047 2.6719 0 5.3867-0.59766 7.9453-1.8594l66.547-32.785c16.387 19.184 37.078 35.434 61.008 48.395-13.883 18.977-24.609 40.453-31.328 63.727-14.98 51.891-22.543 104.14-22.77 156.39-34.266 48.285-54.492 107.2-54.492 170.78v27c0 43.008 34.992 78 78 78h5.3945c3.4531 26.473 25.898 47.051 53.297 47.051h78.492c27.398 0 49.844-20.578 53.297-47.051h144.62c3.4531 26.473 25.898 47.051 53.297 47.051h78.48c27.398 0 49.844-20.578 53.297-47.051h5.4023c43.008 0 78-34.992 78-78v-27c0-63.586-20.23-122.5-54.496-170.79-0.22656-52.254-7.7891-104.5-22.766-156.39-14.715-50.965-48.438-93.406-93.23-119.34 46.848-40.074 78.133-89.488 87.574-140.42zm-505.67 637.64c-3.4414 5.7344-6.0273 11.902-7.7617 18.305h-7.2344c-23.156 0-42-18.844-42-42v-27c0-37.285 7.9531-72.727 22.152-104.81 3.6484 31.809 9.9844 63.566 19.113 95.188 4.1836 14.484 9.9492 28.488 17.141 41.625 2.9258 5.3555 2.3984 12.352-1.4102 18.691zm530.43-155.51c14.203 32.086 22.152 67.527 22.152 104.81v27c0 23.156-18.844 42-42 42h-7.2383c-1.7305-6.4023-4.3164-12.57-7.75-18.305-3.8203-6.3516-4.3477-13.336-1.4297-18.68 7.1836-13.125 12.949-27.129 17.156-41.637 9.1289-31.625 15.461-63.383 19.109-95.191zm-53.703-212.38c28.512 98.73 28.512 198.86 0.011718 297.57-3.4688 11.977-8.2266 23.531-14.156 34.359-9.1172 16.688-8.3203 37.055 2.1445 54.48 3.375 5.625 5.1562 12.082 5.1562 18.68v10.148c0 9.9258-8.0742 18-18 18h-78.48c-9.9258 0-18-8.0742-18-18v-10.148c0-11.473 5.2383-19.699 9.6328-24.574 2.9766-3.3047 4.6172-7.6055 4.6172-12.047v-194.79c0-9.9375-8.0625-18-18-18s-18 8.0625-18 18v188.41c-5.3828 7.3047-9.1367 15.504-11.496 24.094h-148.72c-2.3594-8.5898-6.1133-16.789-11.5-24.094v-188.41c0-9.9375-8.0547-18-18-18s-18 8.0625-18 18v194.79c0 4.4414 1.6445 8.7422 4.6211 12.047 4.3945 4.875 9.6328 13.102 9.6328 24.574v10.148c0 9.9258-8.0742 18-18 18h-78.492c-9.9258 0-18-8.0742-18-18v-10.148c0-6.5859 1.7891-13.043 5.168-18.68 10.453-17.426 11.258-37.781 2.1328-54.48-5.9297-10.84-10.688-22.395-14.145-34.348-28.5-98.73-28.508-198.86-0.007813-297.59 6.2617-21.688 16.883-41.348 30.59-58.391 34.789 12.969 74.164 20.07 115.91 20.07 33.387 0 68.223-4.4531 103.26-13.84 43.953-11.777 83.703-30.164 117.69-53.023 43.641 20.094 76.871 58.184 90.434 105.18zm-217.45-86.93c-109.68 29.375-216.23 6.1562-271.28-51.641l36.578-18.023c8.918-4.3945 12.586-15.188 8.1914-24.105-4.3945-8.9141-15.188-12.586-24.105-8.1914l-42.418 20.898c-5.1797-9.3555-9.4922-19.184-12.309-29.699-1.0625-3.9648-1.8594-7.9883-2.5391-12.039l50.785-3.3477c9.9219-0.64844 17.43-9.2227 16.773-19.141s-9.1641-17.531-19.141-16.773l-49.379 3.2539c0.26172-2.5664 0.41406-5.1211 0.81641-7.707 0.28125-1.8047 0.28906-3.6484 0.015625-5.4531-2.543-16.867-2.3906-34.434 0.44141-52.219 1.6992-10.695 0.87891-21.914-2.4375-33.348l-35.531-122.7c-0.23047-0.77734-0.085937-1.5 0.41016-2.1406 0.48047-0.62109 1.1133-0.92969 1.8828-0.92969h0.09375l137.17 4.5586c3.5547 0.10156 7.1406-0.83594 10.191-2.7617 25.805-16.246 53.992-28.539 83.785-36.527 29.777-7.9766 60.309-11.465 90.82-10.254 3.5625 0.035156 7.1484-0.80859 10.207-2.707l116.51-72.527c0.66797-0.42188 1.418-0.50391 2.168-0.1875 0.75 0.30469 1.2305 0.85547 1.4297 1.6523l30.586 124.02c2.8477 11.566 7.7461 21.699 14.555 30.105 11.332 13.977 20.25 29.113 26.508 45.012 0.66797 1.6992 1.582 3.2891 2.7305 4.7031 1.6406 2.0352 3.0508 4.1719 4.5586 6.2656l-44.395 21.871c-8.918 4.3945-12.586 15.188-8.1914 24.105 3.1406 6.3594 9.5273 10.047 16.16 10.047 2.6719 0 5.3906-0.59766 7.9453-1.8594l45.652-22.492c1.4336 3.8438 2.7539 7.7266 3.8125 11.688 2.8164 10.516 4.1992 21.176 4.3945 31.871l-47.379 3.1211c-9.9141 0.64844-17.426 9.2227-16.781 19.145 0.63281 9.5156 8.543 16.816 17.941 16.816 0.39844 0 0.80859-0.011719 1.207-0.042969l40.926-2.6953c-18.75 77.594-99.648 150.99-209.36 180.39zm-137.58-223.6c4.0156 14.988-4.8828 30.398-19.875 34.418-14.988 4.0156-30.406-4.8789-34.422-19.867-4.0195-14.996 4.8867-30.406 19.875-34.426 14.992-4.0195 30.402 4.8789 34.422 19.875zm199.24-53.387c4.0156 14.988-4.8828 30.398-19.875 34.418-14.988 4.0156-30.398-4.8828-34.414-19.867-4.0195-14.996 4.8789-30.406 19.867-34.422 14.992-4.0195 30.402 4.875 34.422 19.871zm-17.488 156.53c2.707 9.5625-2.8477 19.512-12.41 22.227-9.0938 2.5742-17.695 3.8594-25.793 3.8594-12.512 0-23.781-3.1211-33.719-9.2578-9.1289 16.941-25.539 28.539-48.852 34.43-1.4844 0.375-2.9648 0.55469-4.4219 0.55469-8.0508 0-15.383-5.4375-17.438-13.594-2.4375-9.6406 3.3984-19.43 13.039-21.859 13.27-3.3594 22.074-9.0273 26.172-16.875 2.8633-5.4844 3.2812-11.535 2.9375-16.52l-33.676-26.605c-4.3555-3.4648-6.3945-9.0859-5.293-14.535 1.125-5.4688 5.2344-9.8203 10.625-11.266l63.039-16.891c5.3906-1.4453 11.125 0.26562 14.836 4.4414 3.6797 4.168 4.7188 10.055 2.6797 15.234l-15.859 39.879c2.2227 4.5508 5.668 9.6445 10.988 12.953 7.4531 4.6289 17.859 5.1133 30.914 1.4062 9.5508-2.6758 19.512 2.8438 22.23 12.418z"/>
</svg>
