<?xml version="1.0" encoding="UTF-8"?>
<svg width="1200pt" height="1200pt" version="1.1" viewBox="0 0 1200 1200" xmlns="http://www.w3.org/2000/svg">
 <path d="m1145 578.33c-14.379-16.301-33.656-27.102-55.758-31.23-28.957-5.3867-59.613 3.375-84.176 24.094l-12.328 10.395-12.305-10.379c-24.539-20.711-55.195-29.543-84.129-24.117-22.102 4.1094-41.402 14.906-55.816 31.227-34.957 39.633-33.82 98.203 2.6367 136.25 0.31641 0.32812 0.65625 0.64453 0.99609 0.96094l119.44 106.86c8.3203 7.4531 18.75 11.18 29.18 11.18s20.859-3.7266 29.168-11.168l119.45-106.88c0.33984-0.31641 0.67969-0.63281 0.99609-0.96094 36.457-38.051 37.594-96.609 2.6484-136.24zm-28.195 110.86-118.91 106.39c-2.9297 2.6133-7.3711 2.6367-10.324-0.011719l-118.9-106.38c-22.969-24.434-23.508-61.746-1.1953-87.051 9.0352-10.23 21.281-17.02 35.414-19.652 17.977-3.3477 38.297 2.7109 54.34 16.242l23.59 19.902c6.4922 5.4609 17.344 5.4609 23.836 0l23.613-19.918c16.277-13.715 36.07-19.664 54.363-16.227 14.121 2.6367 26.355 9.4336 35.367 19.652 22.324 25.316 21.773 62.617-1.1953 87.051zm-432.15-63.531c1.0234-20.074 0.46094-39.449-1.7617-57.605 30.863-24.383 54.891-53.445 69.945-85.555l80.609 16.004c1.1836 0.23438 2.3555 0.35156 3.5273 0.35156 8.4141 0 15.926-5.9336 17.637-14.504 1.9336-9.75-4.4062-19.227-14.156-21.16l-75.352-14.961c3.5781-14.211 5.543-28.828 5.543-43.785 0-7.5-0.63672-14.965-1.5781-22.406l71.387-14.172c9.75-1.9336 16.09-11.41 14.156-21.16-1.957-9.7617-11.496-16.078-21.164-14.148l-72.387 14.371c-1.6484-4.9453-3.3867-9.8828-5.4609-14.758-2.707-21.445-8.7422-42.738-17.93-63.309-2.543-5.6953-3.75-12.352-3.5977-19.773l2.8008-139.46c0.25781-12.855-5.707-25.16-15.961-32.926-10.254-7.7617-23.73-10.152-36.023-6.4219l-138.17 41.984c-67.609-19.816-141.35-19.805-208.96 0l-138.17-41.988c-12.297-3.7344-25.773-1.3398-36.023 6.4258-10.254 7.7578-16.219 20.062-15.953 32.918l2.8008 139.45c0.15234 7.418-1.0586 14.07-3.5898 19.754-9.1992 20.613-15.223 41.914-17.922 63.348-2.0781 4.875-3.8164 9.8086-5.4688 14.754l-72.387-14.371c-9.75-1.9219-19.227 4.4062-21.16 14.148-1.9414 9.75 4.3984 19.227 14.148 21.16l71.387 14.172c-0.94141 7.4375-1.5781 14.902-1.5781 22.406 0 14.957 1.9648 29.574 5.543 43.785l-75.352 14.961c-9.75 1.9336-16.09 11.41-14.148 21.16 1.6992 8.5664 9.2227 14.504 17.637 14.504 1.1602 0 2.3398-0.11719 3.5234-0.35156l80.609-16.004c19.754 42.129 54.957 79.027 100.72 106.98-42.102 40.098-75.406 94.383-94.262 158.54-15.477 52.641-18.879 109.44-10.113 168.82l9.6562 65.438c1.3203 8.9414 9.0078 15.375 17.785 15.375 0.87109 0 1.7656-0.058594 2.6484-0.1875 8.9492-1.3203 15.309-9.0273 15.305-17.805 0-0.87109 0.007813-1.7422-0.12109-2.6328l-9.6562-65.438c-7.9961-54.188-4.957-105.81 9.0352-153.42 18.344-62.402 51.492-114.45 93.211-150.78 24.484 11.48 51.121 20.691 79.434 27.117-4.0938 7.3672-8.0195 14.809-11.672 22.32-17.324 35.637-29.156 72.051-35.398 107.13-2.1094 0.58594-4.1562 1.5273-6.0156 2.9219-7.9453 5.9766-9.5391 17.262-3.5625 25.207 9.5703 12.727 22.297 25.758 36.816 37.688 43.16 35.461 100.4 50.578 157.09 41.367 16.254-2.5898 32.133 7.8281 36.086 23.848 4.1758 16.887-5.6836 33.773-22.453 38.426l-33.938 9.4336c-44.84 13.418-86.621 17.918-124.18 13.359-33.965-4.1133-75.012-27.328-102.14-57.762-6.6133-7.418-17.988-8.0625-25.414-1.4648-7.4219 6.6211-8.0742 18-1.457 25.418 12.871 14.438 28.191 27.324 44.578 38.07l-31.949 19.191-3.7344 2.2422c-11.496 6.9023-17.234 20.32-14.266 33.398 2.9727 13.09 13.934 22.734 27.293 24l92.473 8.7656c5.0391 0.48047 9.7266 2.7539 13.207 6.4219l64.008 67.301c6 6.3164 14.145 9.6562 22.441 9.6562 4.4883 0 9.0234-0.98437 13.277-3 12.121-5.7422 19.148-18.539 17.48-31.852l-13.434-107.05c-0.1875-1.5 0.19531-2.8906 0.80469-4.1758 7.4492-1.6367 14.988-3.6016 22.566-5.7109 2.8203-0.78516 5.5898-1.3828 8.4258-2.2344l33.59-9.3281c21.523-5.9805 37.637-21.449 45.129-40.648 16.473 3.7383 33.828 5.8086 51.168 5.8086 10.898 0 21.773-0.77344 32.367-2.3672 9.832-1.4883 16.594-10.652 15.117-20.484-1.4883-9.8203-10.605-16.641-20.484-15.117-24.402 3.6719-50.969 1.9922-74.555-3.9492-0.28516-1.6641-0.56641-3.3242-0.98047-4.9922-8.4141-34.078-42.145-56.379-76.793-50.742-2.9609 0.48047-5.9219 0.64844-8.8828 0.96875-14.562-15.012-28.414-32.371-41.48-52.016l-19.887-28.641c-9.9219-14.297-6.7266-33.574 7.2852-43.898 13.246-9.7969 32.148-7.7344 43.004 4.7109 37.734 43.254 91.414 68.238 147.28 68.531 19.078-0.035156 36.691-1.7461 52.383-5.4609 9.6797-2.2969 15.656-12 13.371-21.668-1.1797-4.9766-4.3281-8.9414-8.4102-11.34 7.1875-21.859 12.832-44.215 16.809-66.406 13.789 23.512 25.25 49.508 33.555 77.75 14.004 47.613 17.051 99.234 9.0469 153.43l-9.668 65.461c-0.12891 0.88672-0.12109 1.7578-0.12109 2.6328 0.003906 8.7812 6.3516 16.484 15.309 17.805 9.7617 1.418 18.973-5.3438 20.438-15.188l9.668-65.461c8.7539-59.391 5.3438-116.19-10.125-168.83-13.684-46.52-35.031-87.781-61.711-122.32zm-321.91 404.02c-9.457-9.9492-22.203-16.148-35.891-17.449l-77.277-7.3242 41.301-24.812c14.441 5.9375 28.977 10.168 42.855 11.852 10.91 1.3242 22.098 1.9805 33.535 1.9805 12.156 0 24.68-1.0039 37.363-2.4883 0.058594 0.86719-0.03125 1.707 0.078125 2.582l11.539 91.91zm260.12-281.13c-6.0117 0.48047-12.191 0.77734-18.574 0.71484-45.535-0.23438-89.391-20.719-120.33-56.203-23.074-26.438-63.254-30.844-91.5-10.008-29.797 21.961-36.598 62.988-15.48 93.398l19.684 28.348c6.9648 10.477 14.184 20.363 21.621 29.703-25.625-5.0273-49.746-15.941-69.961-32.551-6.0859-5-11.762-10.188-16.902-15.414 4.5586-36.762 16.145-76.031 34.586-113.96 18.613-38.289 44.562-75.621 73.527-107.03 49.562 65.543 117.92 99.684 199.5 99.684 1.875 0 3.8203-0.17578 5.7109-0.21094-4.375 27.328-11.664 55.68-21.883 83.531zm-209.69-241.83c11.258-3.7305 20.824-9.6836 28.473-18.008 0.23047-0.25 0.37109-0.51953 0.59375-0.76953 0.22266 0.25 0.36719 0.52344 0.59375 0.76953 4.082 4.4414 8.7539 8.1523 13.875 11.289-12.703 10.277-25.07 21.652-36.984 33.988zm235.7 122.22c-76.52 2.9258-138.34-27.008-183.48-89.094 6.8516-6.1875 13.766-12.113 20.762-17.469 46.266-35.43 89.105-47.836 117.55-33.984 34.609 16.824 49.699 72.816 45.164 140.55zm25.836-100.47c-10.273-33.41-28.336-59.359-55.262-72.453-35.004-17.027-79.379-10.258-127.15 18.637-9.9023-1.2969-17.656-4.6094-22.809-10.129-4.5117-4.8281-6.793-10.801-8.0039-16.137l29.297-39.324c3.6133-4.8867 4.1797-11.391 1.4766-16.824-2.7344-5.4531-8.2969-8.875-14.391-8.875h-71.262c-6.0938 0-11.656 3.4258-14.391 8.875-2.7031 5.4375-2.1367 11.941 1.4766 16.824l29.301 39.324c-1.2109 5.3359-3.4922 11.309-8.0039 16.137-6.8906 7.3633-18.457 10.805-33.457 10.766-10.102-0.058594-18.117 7.8047-18.258 17.742-0.14062 9.9453 7.8047 18.109 17.742 18.258 0.61328 0.007813 1.2188 0.011719 1.8281 0.011719 0.19531 0 0.375-0.019531 0.57031-0.023437l9.5703 39.855c0.48047 1.9844 1.0898 3.7344 1.8828 5.3516 0.39844 0.81641 1.0469 1.9414 1.8477 3.1914-11.164 13.426-21.688 27.578-31.461 42.297-91.238-17.465-164.84-65.129-197.35-126.66l46.156-9.1641c9.75-1.9336 16.09-11.41 14.148-21.16-1.9336-9.7422-11.387-16.078-21.16-14.148l-52.395 10.402c-3.1094-11.941-4.8164-24.223-4.8164-36.781 0-5.1445 0.28906-10.285 0.84766-15.402l56.363 11.191c1.1836 0.23437 2.3594 0.35156 3.5195 0.35156 8.4141 0 15.938-5.9336 17.637-14.504 1.9414-9.75-4.3984-19.227-14.148-21.16l-54.922-10.902c1.2031-3.2773 2.3398-6.5625 3.7773-9.8008 0.73828-1.6758 1.2266-3.4531 1.4297-5.2734 2.1055-18.68 7.2656-37.328 15.352-55.449 4.7109-10.57 6.9648-22.398 6.7031-35.148l-2.7969-139.45c-0.035156-1.7969 0.90234-2.8945 1.6953-3.4922 0.58594-0.44141 1.4414-0.88672 2.5391-0.88672 0.39844 0 0.83203 0.058593 1.2969 0.19922l143.38 43.578c3.4336 1.0547 7.1172 1.0312 10.559-0.023437 63.961-19.824 134.38-19.816 198.36-0.007813 3.4336 1.0469 7.1172 1.0742 10.551 0.023438l143.37-43.57c1.7461-0.53516 3.0234 0.082032 3.832 0.68359 0.78516 0.59766 1.7227 1.6953 1.6875 3.4922l-2.8008 139.46c-0.24609 12.758 2.0039 24.578 6.7148 35.164 8.0859 18.082 13.254 36.734 15.375 55.43 0.19922 1.8164 0.67969 3.5859 1.418 5.25 1.4336 3.2461 2.5742 6.5352 3.7734 9.8125l-54.926 10.906c-9.75 1.9336-16.09 11.41-14.156 21.16 1.7109 8.5664 9.2227 14.504 17.637 14.504 1.1719 0 2.3438-0.11719 3.5273-0.35156l56.363-11.191c0.55859 5.1211 0.84766 10.262 0.84766 15.402 0 12.559-1.7109 24.84-4.8164 36.781l-52.395-10.402c-9.6562-1.8984-19.207 4.3945-21.164 14.148-1.9336 9.75 4.4062 19.227 14.156 21.16l46.156 9.1641c-10.172 19.246-24.383 37.125-41.875 53.164zm-295.58-197.18c7.2891 6.7617 7.7188 18.152 0.95312 25.434-3.5469 3.8281-8.3672 5.7617-13.203 5.7617-4.3828 0-8.7695-1.5859-12.234-4.8047-34.098-31.637-78.621-8.4609-80.508-7.4648-8.7422 4.6797-19.641 1.4141-24.352-7.3125-4.7031-8.7188-1.5156-19.578 7.1758-24.324 2.7812-1.5273 68.898-36.719 122.17 12.711zm255.55 11.711c-4.7695 8.707-15.68 11.906-24.348 7.2109-1.875-0.99609-46.395-24.172-80.496 7.4648-3.4688 3.2148-7.8633 4.8047-12.238 4.8047-4.832 0-9.6562-1.9336-13.203-5.7539-6.7617-7.2891-6.332-18.68 0.94922-25.441 53.258-49.406 119.36-14.242 122.16-12.707 8.7305 4.7656 11.941 15.699 7.1719 24.422zm-12.367 228.8c-5.2695 10.84-18.328 15.355-29.164 10.082-10.84-5.2695-15.352-18.328-10.082-29.164 5.2695-10.84 18.328-15.352 29.164-10.082 10.836 5.2656 15.352 18.324 10.082 29.164z"/>
</svg>
